<?xml version="1.0" standalone="no"?>
<!DOCTYPE svg PUBLIC "-//W3C//DTD SVG 20010904//EN"
 "http://www.w3.org/TR/2001/REC-SVG-20010904/DTD/svg10.dtd">
<svg version="1.0" xmlns="http://www.w3.org/2000/svg"
 width="1257.000000pt" height="1257.000000pt" viewBox="0 0 1257.000000 1257.000000"
 preserveAspectRatio="xMidYMid meet">

<g transform="translate(0.000000,1257.000000) scale(0.100000,-0.100000)"
fill="#000000" stroke="none">
<path d="M968 12498 c-2 -119 -6 -471 -17 -1708 -7 -646 -17 -1263 -23 -1370
-18 -307 -17 -318 12 -340 20 -15 23 -21 13 -31 -18 -18 -16 -49 2 -49 20 0
73 58 81 88 4 16 0 30 -14 45 -18 19 -21 37 -23 117 -1 52 0 147 3 210 8 174
17 735 23 1415 3 336 8 854 11 1153 l6 542 -36 0 -36 0 -2 -72z"/>
<path d="M6775 12542 c-16 -15 -36 -40 -44 -54 -8 -15 -33 -49 -57 -75 -24
-26 -44 -52 -44 -58 0 -5 -18 -23 -39 -39 -21 -15 -45 -39 -52 -52 -7 -13 -16
-24 -21 -24 -14 0 -48 -34 -48 -49 0 -8 -29 -43 -65 -77 -38 -36 -65 -71 -65
-83 0 -11 -5 -23 -10 -26 -17 -10 -87 -109 -104 -146 -26 -56 -53 -99 -85
-134 -16 -18 -27 -36 -24 -39 7 -6 -44 -77 -65 -90 -8 -4 -20 -23 -28 -42 -8
-19 -19 -34 -24 -34 -6 0 -19 -15 -30 -32 -11 -18 -20 -28 -20 -23 0 6 -5 3
-10 -5 -7 -12 -12 -12 -22 -2 -20 20 -41 15 -28 -7 19 -37 12 -71 -20 -89 -17
-9 -33 -26 -36 -37 -4 -11 -17 -29 -29 -40 -12 -11 -28 -30 -34 -42 -7 -15
-21 -23 -37 -23 -19 0 -26 -6 -30 -29 -4 -16 -14 -31 -24 -34 -11 -3 -24 -26
-35 -65 -10 -34 -21 -61 -24 -60 -29 3 -39 -6 -44 -35 -5 -31 -57 -97 -77 -97
-5 0 -21 -5 -35 -12 -31 -14 -33 -44 -4 -51 19 -5 20 -8 8 -20 -8 -8 -31 -17
-51 -21 -20 -3 -39 -13 -42 -22 -3 -8 -10 -13 -15 -10 -5 4 -16 -1 -24 -9 -9
-8 -20 -15 -26 -15 -6 0 -11 -5 -11 -11 0 -7 10 -9 25 -7 17 4 25 1 25 -9 0
-7 -11 -19 -25 -25 -14 -6 -25 -15 -25 -20 0 -4 -6 -8 -14 -8 -7 0 -16 -14
-20 -31 -3 -17 -15 -44 -27 -60 -11 -16 -19 -39 -17 -51 3 -19 -2 -22 -37 -22
-36 -1 -40 -3 -46 -35 -4 -18 -13 -37 -21 -42 -7 -5 -9 -9 -4 -9 5 0 3 -7 -4
-15 -7 -9 -20 -13 -29 -10 -18 5 -39 -42 -48 -107 -5 -39 -26 -51 -37 -22 -5
14 -10 13 -31 -10 -13 -14 -29 -26 -36 -26 -7 0 -9 -10 -6 -26 3 -16 0 -28 -9
-31 -8 -3 -14 -17 -14 -32 0 -19 -8 -29 -30 -39 -41 -18 -120 -101 -113 -118
3 -8 14 -14 26 -14 21 0 79 -16 107 -30 8 -4 39 -13 67 -19 46 -11 52 -16 51
-37 -2 -22 -7 -24 -51 -24 -28 0 -54 -6 -62 -14 -12 -12 -9 -15 20 -20 20 -4
44 -2 56 4 12 7 36 9 56 5 25 -4 42 -1 67 14 18 12 47 21 64 21 32 0 51 25 26
34 -26 10 -47 7 -65 -10 -23 -21 -94 -11 -85 12 3 7 -4 30 -16 49 -38 66 -9
142 95 249 30 31 66 80 81 111 14 30 32 55 40 55 35 0 77 -91 46 -102 -6 -2
-11 -23 -11 -48 -1 -25 -6 -83 -12 -128 -7 -60 -6 -87 2 -95 15 -15 14 -54 -1
-59 -18 -6 -1 -38 21 -38 25 0 71 20 71 32 0 4 -9 8 -20 8 -11 0 -20 5 -20 11
0 5 -4 8 -9 5 -5 -3 -11 0 -13 7 -7 17 2 38 13 31 15 -9 23 27 10 48 -8 13 -8
24 -1 38 8 14 7 26 -1 41 -8 15 -8 24 0 32 6 6 11 30 11 53 0 24 5 55 11 71 7
15 11 43 10 61 -1 18 1 38 5 44 4 6 8 34 9 62 1 41 10 65 45 121 57 93 68 115
75 146 2 15 41 68 85 118 44 50 80 94 80 99 0 4 13 23 30 42 16 19 29 39 30
43 0 5 15 24 34 42 19 18 42 47 50 64 20 38 77 123 91 136 6 6 19 22 28 38 20
31 42 35 56 9 11 -21 6 -228 -11 -402 -5 -63 -11 -126 -12 -140 -3 -44 -73
-170 -94 -170 -7 0 -19 -15 -27 -32 -8 -18 -37 -53 -65 -77 -27 -24 -48 -47
-45 -51 3 -5 -29 -42 -70 -83 -41 -41 -75 -79 -75 -84 0 -6 -6 -13 -14 -16 -8
-3 -22 -22 -32 -42 -9 -20 -36 -49 -60 -66 -43 -29 -43 -30 -28 -54 15 -22 12
-51 -4 -41 -4 2 -16 -2 -27 -10 -17 -13 -18 -16 -5 -25 11 -8 12 -12 3 -16 -7
-2 -13 -13 -13 -24 0 -14 7 -19 26 -19 21 0 24 4 19 20 -3 11 -4 28 0 38 9 31
125 57 125 30 0 -23 31 45 34 76 2 16 11 35 20 41 9 7 16 17 16 24 0 6 7 11
15 11 19 0 64 49 65 70 0 9 29 46 64 82 35 37 67 76 71 87 4 12 19 24 38 29
26 7 33 14 35 38 2 19 11 33 25 39 14 6 23 21 25 39 4 29 68 120 103 144 11 7
19 19 19 27 0 8 18 28 39 46 27 21 43 45 52 75 8 24 17 44 21 44 4 0 14 16 22
35 8 19 24 45 36 57 12 13 30 39 40 59 10 19 44 57 74 84 31 27 56 57 56 67 0
10 4 18 8 18 5 0 19 30 32 68 25 72 38 95 50 87 5 -3 22 14 39 37 16 24 43 60
58 81 15 21 28 42 29 45 1 20 61 102 81 111 13 6 23 19 23 31 0 11 6 20 14 20
8 0 18 9 21 21 4 12 23 38 44 59 20 21 43 50 51 66 17 32 155 174 170 174 16
0 130 123 130 141 0 9 20 38 45 65 25 26 45 53 45 59 0 7 25 45 55 86 30 41
55 81 55 90 0 9 11 29 26 45 49 56 50 64 4 64 -22 0 -40 -4 -40 -9 0 -4 -22
-39 -50 -77 -27 -38 -55 -77 -62 -87 -22 -31 -51 -26 -58 8 -4 17 -3 37 0 45
4 8 10 39 13 68 l6 52 -44 0 -45 0 0 -53 c0 -29 -7 -80 -16 -112 -10 -34 -17
-94 -16 -139 0 -62 -4 -87 -21 -120 -21 -40 -181 -206 -198 -206 -5 0 -9 -5
-9 -11 0 -7 -9 -21 -21 -33 -11 -12 -57 -65 -102 -120 -79 -95 -99 -125 -149
-231 -12 -27 -39 -66 -59 -87 -32 -33 -38 -36 -54 -24 -14 10 -17 22 -12 57 3
24 10 80 16 124 6 44 17 156 25 248 12 147 12 172 -1 197 -13 28 -13 33 13 79
14 27 45 64 68 82 36 29 123 109 205 189 36 36 131 147 131 154 0 3 -26 6 -57
6 -49 -1 -63 -5 -88 -28z m-315 -529 c0 -16 -7 -50 -16 -78 -10 -34 -17 -111
-21 -240 -3 -111 -11 -213 -19 -245 -8 -30 -14 -66 -14 -80 0 -58 -42 -147
-102 -211 -36 -39 -62 -78 -69 -101 -5 -21 -14 -38 -20 -38 -5 0 -15 -12 -21
-26 -7 -14 -24 -32 -39 -40 -18 -9 -32 -28 -41 -56 -18 -55 -63 -82 -86 -52
-14 20 -13 43 7 204 6 41 10 146 11 233 0 157 4 180 38 216 9 10 26 33 37 51
39 65 90 143 144 223 28 40 77 127 111 194 35 71 100 100 100 46z m-1110
-1384 c0 -5 -7 -9 -15 -9 -15 0 -20 12 -9 23 8 8 24 -1 24 -14z"/>
<path d="M11300 12555 c0 -8 4 -15 10 -15 5 0 16 -15 24 -32 7 -18 27 -45 45
-61 17 -15 31 -32 31 -38 0 -14 35 -60 85 -112 22 -23 47 -56 57 -72 9 -17 28
-36 42 -43 14 -7 29 -24 32 -38 3 -13 12 -24 19 -24 8 0 18 -15 24 -33 7 -19
19 -42 29 -53 9 -11 46 -55 82 -99 35 -44 70 -86 77 -93 7 -7 13 -24 13 -36 0
-12 11 -33 24 -45 14 -13 30 -37 37 -54 7 -18 26 -44 41 -59 16 -15 28 -37 28
-51 0 -14 5 -29 10 -32 6 -3 10 -15 10 -25 0 -10 7 -25 15 -34 8 -8 15 -21 15
-28 0 -22 30 -58 48 -58 10 0 28 -19 42 -46 14 -25 37 -52 53 -60 15 -8 38
-32 52 -54 14 -22 29 -40 34 -40 4 0 16 -18 26 -40 10 -22 23 -40 30 -40 18 0
43 -32 57 -72 7 -20 40 -65 73 -102 33 -36 70 -78 82 -93 l22 -28 1 71 c0 63
-3 73 -25 94 -14 13 -25 28 -25 34 0 20 -161 234 -253 336 -44 48 -67 84 -104
160 -18 36 -59 93 -92 128 -33 34 -71 83 -86 108 -38 64 -49 78 -144 174 -46
47 -96 103 -110 125 -14 22 -29 42 -32 45 -3 3 -11 21 -18 41 -6 20 -25 51
-42 70 -16 18 -33 45 -36 59 -4 13 -12 31 -20 38 -7 7 -16 25 -19 40 -4 15
-14 36 -24 47 -9 11 -32 50 -50 88 l-33 67 -78 0 c-64 0 -79 -3 -79 -15z"/>
<path d="M11900 12554 c0 -9 4 -33 9 -53 5 -20 17 -74 26 -121 9 -47 21 -104
26 -127 5 -23 9 -52 9 -65 0 -13 7 -36 15 -52 10 -19 14 -49 12 -93 -3 -53 2
-82 31 -166 19 -56 41 -109 48 -118 8 -8 14 -20 14 -26 0 -15 40 -63 52 -63
17 0 0 91 -27 148 -14 29 -25 69 -25 89 -1 40 -20 129 -39 176 -6 16 -11 39
-11 53 0 14 -9 50 -19 82 -37 108 -57 197 -51 222 l6 25 17 -31 c9 -17 22 -34
29 -37 8 -2 26 -29 42 -58 60 -112 140 -245 166 -274 14 -16 39 -50 56 -75 16
-25 34 -50 39 -56 6 -6 26 -31 45 -55 19 -24 72 -82 117 -129 l83 -85 0 98 c0
76 -3 97 -14 97 -21 0 -122 125 -151 186 -12 26 -76 105 -125 154 -19 20 -43
51 -52 70 -10 19 -29 53 -43 75 -14 22 -28 47 -32 55 -4 8 -17 26 -30 40 -13
14 -23 30 -23 35 0 6 -12 30 -27 53 l-27 42 -73 0 c-61 0 -73 -3 -73 -16z"/>
<path d="M8700 12279 c-36 -5 -86 -11 -112 -15 -56 -7 -58 -11 -60 -125 -1
-91 10 -141 48 -228 22 -48 25 -68 22 -145 -2 -66 1 -91 10 -94 10 -3 10 -7 1
-18 -8 -9 -10 -38 -7 -83 l5 -70 -46 -10 c-25 -5 -85 -13 -133 -16 -49 -4 -88
-11 -88 -17 0 -7 -17 -8 -46 -3 -30 4 -50 2 -60 -6 -11 -9 -18 -9 -26 -1 -7 7
-25 12 -42 12 -28 0 -29 -1 -12 -19 15 -17 16 -25 6 -55 -6 -20 -15 -36 -20
-36 -10 0 -22 -33 -26 -70 -2 -14 -5 -140 -8 -280 -3 -140 -11 -309 -17 -374
-16 -164 5 -366 38 -366 16 0 17 -52 1 -68 -9 -9 -9 -12 3 -12 9 0 19 -16 26
-41 10 -38 9 -40 -9 -36 -16 4 -17 3 -7 -9 6 -8 16 -14 22 -14 15 0 36 -33 37
-58 0 -19 3 -21 19 -12 17 8 18 15 10 42 -11 39 -12 99 -1 114 25 39 140 14
197 -43 86 -86 122 -203 123 -400 0 -73 3 -137 7 -143 11 -17 33 -11 58 16 23
25 25 33 26 157 1 159 -18 242 -63 277 -19 15 -30 26 -113 117 -52 56 -116 82
-170 69 -61 -15 -72 -14 -90 7 -30 34 -48 146 -47 297 1 126 3 141 33 228 l33
93 -6 158 c-5 140 -3 168 15 237 11 44 27 86 35 95 30 33 124 70 204 79 44 5
88 14 99 20 11 5 40 10 65 10 26 0 55 5 65 12 19 11 18 13 -9 29 -32 20 -31
15 -49 279 -5 80 -17 165 -25 190 -21 61 -34 162 -24 186 11 23 110 79 156 88
63 11 179 -58 169 -102 -2 -9 -9 -16 -15 -14 -17 3 -27 -27 -13 -41 13 -13 15
-73 2 -82 -5 -3 -10 -18 -9 -33 0 -15 -8 -58 -17 -97 -14 -56 -16 -94 -10
-192 8 -132 -2 -189 -35 -201 -17 -7 -17 -9 5 -34 22 -26 27 -27 69 -19 38 7
48 5 62 -10 10 -11 21 -19 26 -19 12 0 91 -56 127 -91 9 -8 28 -23 44 -32 27
-17 35 -44 19 -62 -13 -15 -49 -125 -57 -172 -4 -24 -10 -43 -15 -43 -4 0 -13
-26 -19 -57 -6 -32 -16 -65 -21 -73 -9 -13 -12 -12 -25 4 -8 11 -17 34 -21 52
-3 19 -17 40 -32 51 -14 10 -44 37 -68 60 -58 59 -145 105 -181 97 -45 -10
-122 -55 -128 -74 -3 -10 -32 -44 -65 -76 -58 -58 -100 -120 -100 -149 0 -21
18 -18 25 4 3 10 28 34 55 53 27 18 50 39 50 46 0 15 36 52 50 52 6 0 10 -10
10 -22 0 -38 12 -45 95 -58 75 -11 83 -14 124 -57 24 -24 55 -49 68 -54 23 -9
24 -12 18 -67 -4 -31 -13 -62 -21 -68 -8 -6 -14 -14 -14 -18 0 -12 -53 -55
-92 -76 -33 -18 -41 -18 -87 -6 -64 16 -68 20 -51 52 12 22 12 27 0 34 -8 6
-25 10 -36 10 -30 0 -43 19 -62 92 -11 41 -22 63 -32 63 -21 0 -24 -38 -8 -92
10 -35 22 -52 51 -70 37 -23 47 -42 25 -45 -7 0 -20 -2 -28 -3 -8 -1 -24 6
-35 16 -11 9 -29 21 -40 27 -11 5 -29 33 -40 61 -23 60 -36 66 -28 14 7 -50
73 -135 133 -174 38 -24 47 -35 43 -52 -4 -20 -3 -20 7 -4 15 24 43 21 78 -8
39 -32 58 -32 146 6 61 27 74 37 82 62 10 35 34 53 58 44 14 -5 15 -21 11
-117 -2 -61 -11 -153 -19 -203 -36 -220 -48 -522 -22 -572 10 -19 12 -35 6
-50 -12 -30 -5 -35 50 -35 62 0 79 19 78 86 0 35 9 70 27 110 27 57 28 66 31
254 2 125 8 211 16 240 l14 45 69 2 c87 3 215 23 215 34 0 4 21 11 48 15 27 3
57 16 72 29 14 12 37 30 51 39 25 16 31 25 63 98 9 20 21 40 26 43 6 3 10 15
10 26 0 10 7 19 15 19 11 0 14 7 9 25 -4 17 -1 32 9 43 14 16 18 28 37 117 4
22 16 60 25 85 22 61 12 150 -24 207 -26 42 -27 43 -86 45 -139 5 -201 5 -217
1 -25 -6 -35 -56 -48 -243 -14 -209 -16 -221 -32 -231 -19 -13 -50 -10 -78 6
-14 8 -46 14 -72 15 -26 0 -49 4 -53 9 -3 6 -2 29 1 52 5 30 13 43 27 47 17 4
19 11 14 55 -4 48 12 148 32 192 17 38 41 141 41 177 0 20 -7 43 -15 52 -8 8
-15 19 -15 25 0 6 -7 11 -15 11 -13 0 -46 13 -112 43 -13 6 -25 19 -29 29 -4
15 -12 18 -29 14 -15 -4 -28 1 -40 14 -10 11 -30 20 -45 20 -15 0 -40 11 -55
24 l-29 25 17 68 c9 37 21 124 27 192 6 68 20 164 31 214 25 118 25 181 -1
216 -10 15 -49 42 -85 60 -73 36 -133 44 -235 30z m997 -1201 c50 -35 51 -49
13 -143 -9 -22 -17 -57 -29 -125 -13 -77 -60 -192 -108 -262 -39 -57 -54 -70
-92 -84 -25 -9 -61 -22 -79 -30 -43 -18 -122 -18 -158 1 -16 8 -36 15 -46 15
-14 0 -16 11 -15 66 2 82 19 99 68 70 26 -15 44 -18 98 -13 94 8 124 21 139
60 7 17 17 106 22 197 11 186 18 240 32 258 18 22 117 15 155 -10z"/>
<path d="M8791 12036 c-9 -11 -8 -15 5 -20 26 -10 32 -7 27 14 -6 23 -16 25
-32 6z"/>
<path d="M2782 11781 c-21 -18 -33 -20 -115 -15 -84 6 -97 4 -146 -19 -60 -29
-123 -97 -142 -155 -6 -20 -22 -50 -35 -65 -13 -16 -24 -34 -24 -41 0 -7 -9
-21 -19 -30 -11 -10 -22 -38 -25 -64 -4 -26 -13 -67 -21 -92 -12 -39 -36 -196
-36 -240 -1 -28 19 -148 25 -159 10 -16 36 -119 36 -141 0 -11 4 -20 8 -20 5
0 20 -21 33 -47 13 -27 36 -63 51 -81 15 -18 28 -43 28 -57 0 -14 7 -26 18
-30 22 -6 42 -45 42 -81 0 -14 4 -23 9 -20 17 11 51 -31 51 -64 0 -22 8 -38
25 -52 14 -11 25 -26 25 -34 0 -8 6 -14 14 -14 7 0 16 -8 20 -17 3 -10 21 -45
40 -78 19 -33 45 -78 57 -100 12 -22 31 -53 44 -70 12 -16 25 -41 29 -55 22
-83 34 -108 62 -132 41 -36 114 -179 114 -224 l0 -35 -47 27 -48 27 -269 -7
c-272 -7 -355 -16 -377 -42 -7 -9 -30 -14 -61 -14 -43 0 -54 -4 -79 -31 -34
-37 -35 -43 -9 -94 21 -42 58 -63 113 -64 16 -1 56 -10 90 -20 114 -36 156
-41 345 -41 220 0 300 10 379 47 80 36 134 36 198 -3 28 -16 70 -38 95 -49 64
-27 69 -32 103 -103 17 -35 43 -73 59 -85 15 -11 28 -28 28 -37 0 -32 -59 -98
-137 -152 -100 -71 -156 -99 -306 -153 -200 -72 -218 -80 -258 -122 -48 -51
-89 -156 -89 -229 0 -35 9 -77 26 -118 37 -92 149 -200 255 -244 130 -54 351
-75 502 -47 125 23 262 69 319 107 14 10 29 18 32 18 11 0 133 97 194 154 132
123 138 130 209 228 13 17 42 53 65 80 33 39 46 48 62 43 12 -4 71 -8 131 -9
120 -3 169 -11 200 -32 11 -8 27 -14 36 -14 9 0 30 -7 45 -15 16 -8 43 -15 60
-15 16 0 35 -5 41 -11 6 -6 70 -11 159 -12 145 -2 151 -1 239 31 50 18 108 41
130 52 22 11 48 20 58 20 9 0 36 9 60 19 60 27 183 43 269 36 l73 -7 -44 26
c-26 16 -58 26 -82 26 -77 0 -195 -24 -254 -51 -33 -15 -85 -35 -115 -43 -30
-8 -95 -26 -145 -41 -80 -23 -104 -25 -210 -22 -86 3 -129 9 -152 20 -18 10
-47 17 -65 17 -18 0 -50 9 -70 20 -20 11 -56 22 -80 24 -24 3 -67 9 -97 15
-29 6 -56 9 -61 6 -4 -2 -34 -7 -68 -10 l-60 -6 14 54 c8 30 25 74 38 98 62
113 109 326 103 465 -5 126 -16 170 -56 228 -17 26 -41 75 -52 109 -11 34 -45
110 -75 168 -30 58 -54 113 -54 122 0 21 33 22 50 2 10 -12 16 -12 34 -3 11 6
32 11 46 10 34 -2 58 43 27 52 -11 3 -28 -1 -38 -8 -44 -30 -119 25 -119 87 0
12 -9 28 -20 35 -13 8 -20 23 -20 41 0 17 -5 33 -11 37 -6 3 -8 16 -5 28 4 15
-1 24 -16 31 -24 12 -50 80 -42 112 5 20 2 23 -20 23 -16 0 -26 6 -26 15 0 8
-4 15 -10 15 -5 0 -10 7 -10 15 0 8 -7 15 -15 15 -8 0 -15 -4 -15 -10 0 -5 -5
-10 -11 -10 -5 0 -7 5 -4 10 3 6 1 10 -4 10 -6 0 -11 9 -11 19 0 11 -14 30
-31 42 l-31 22 4 88 c2 66 0 89 -9 89 -8 0 -13 -13 -13 -30 0 -23 -5 -30 -19
-30 -23 0 -35 30 -32 83 2 33 -1 37 -23 37 -20 0 -27 7 -32 28 -9 34 -32 82
-51 100 -8 8 -12 21 -9 28 7 18 -12 63 -36 87 -21 21 -24 47 -4 47 8 0 17 7
20 16 4 11 1 14 -13 9 -34 -10 -54 22 -48 77 3 26 3 47 -1 47 -32 -5 -52 3
-52 20 0 11 -5 42 -12 70 -9 42 -15 50 -29 46 -20 -7 -39 20 -39 55 0 11 -12
33 -26 48 -14 15 -32 42 -40 59 -8 18 -23 39 -34 45 -11 7 -20 17 -20 21 0 12
-22 32 -42 40 -10 3 -20 16 -23 29 -4 13 -21 30 -38 39 -18 9 -31 23 -29 31 1
10 -15 18 -50 27 -56 14 -81 28 -73 41 9 14 -20 28 -70 33 -27 3 -72 11 -100
17 -27 6 -86 14 -130 16 -69 4 -83 2 -103 -15z m136 -72 c182 -19 268 -57 372
-161 41 -41 89 -92 105 -113 33 -42 92 -140 102 -168 3 -11 23 -55 44 -99 22
-44 39 -84 39 -89 0 -6 11 -27 25 -47 14 -20 25 -42 25 -49 0 -6 34 -81 75
-166 41 -86 75 -158 75 -161 0 -10 142 -261 164 -291 13 -16 40 -48 60 -69 20
-22 36 -44 36 -48 0 -5 16 -32 36 -60 99 -145 141 -321 97 -413 -22 -45 -41
-45 -48 3 -11 69 -35 139 -55 157 -11 10 -20 22 -20 27 0 6 -18 31 -40 56 -69
82 -154 185 -203 247 -68 88 -225 355 -277 470 -24 55 -54 117 -67 137 -13 21
-23 39 -23 42 0 9 -147 257 -197 334 -76 114 -263 303 -327 331 -27 12 -59 21
-72 21 -38 0 -67 36 -60 73 5 26 20 46 34 47 1 0 46 -5 100 -11z m-10 -191
c47 -22 63 -37 173 -159 131 -145 250 -343 427 -709 86 -178 214 -376 332
-516 165 -194 194 -240 218 -350 26 -120 17 -197 -28 -254 -71 -90 -192 -168
-291 -189 -24 -5 -80 -19 -124 -32 -72 -19 -88 -20 -160 -10 -96 13 -157 34
-205 71 -19 15 -49 34 -66 43 -17 8 -43 35 -59 59 -16 24 -41 59 -56 78 -31
41 -319 597 -319 616 0 3 -8 17 -19 32 -10 15 -38 59 -61 97 -24 39 -54 81
-67 96 -13 14 -23 30 -23 35 0 6 -33 61 -74 124 -41 62 -91 147 -111 189 -20
42 -46 93 -56 114 -17 33 -20 61 -22 230 l-2 192 43 108 c48 119 60 127 114
82 54 -46 159 -27 239 42 19 17 41 32 49 35 26 10 103 -3 148 -24z m52 -2003
c0 -16 -6 -25 -15 -25 -9 0 -15 9 -15 25 0 16 6 25 15 25 9 0 15 -9 15 -25z
m70 -65 c0 -5 -2 -10 -4 -10 -3 0 -8 5 -11 10 -3 6 -1 10 4 10 6 0 11 -4 11
-10z m1355 -80 c4 -11 -2 -48 -13 -83 -11 -34 -23 -78 -26 -98 -6 -34 -62
-178 -105 -269 -48 -102 -255 -332 -415 -461 -88 -70 -130 -96 -206 -128 -167
-69 -227 -81 -396 -81 -206 0 -301 28 -387 113 -76 75 -74 140 7 215 29 26 66
47 112 62 38 12 74 26 80 31 6 5 40 18 76 29 36 11 76 28 89 39 13 10 52 33
87 52 74 39 163 112 210 172 19 23 40 46 48 50 8 5 47 3 87 -3 137 -20 325 27
457 117 76 51 220 182 220 200 0 17 41 63 55 63 8 0 17 -9 20 -20z m-40 -467
c-11 -46 -87 -193 -149 -287 -78 -120 -130 -180 -261 -298 -95 -86 -127 -108
-230 -158 -143 -70 -173 -78 -335 -89 -106 -8 -140 -6 -220 10 -177 35 -203
45 -280 118 -64 61 -84 91 -61 91 5 0 33 -16 63 -35 95 -63 169 -79 358 -79
180 0 241 11 355 63 33 15 80 36 105 46 68 29 96 48 269 195 97 81 215 217
303 348 69 102 96 127 83 75z"/>
<path d="M2736 10715 c-44 -41 -33 -97 26 -132 34 -20 108 -149 108 -186 0
-29 -28 -31 -80 -7 -84 39 -113 0 -35 -46 38 -22 52 -25 94 -19 37 5 52 3 64
-9 14 -15 46 -70 162 -282 22 -40 53 -91 68 -114 30 -44 32 -73 5 -78 -15 -3
-168 112 -168 127 0 3 -16 23 -36 44 -24 26 -40 35 -47 28 -47 -47 175 -253
303 -280 60 -13 85 -8 162 30 90 45 134 122 144 252 5 62 2 77 -16 106 -31 50
-43 28 -41 -73 3 -116 -25 -177 -107 -234 -17 -13 -42 -22 -54 -20 -22 3 -69
69 -151 213 -19 33 -57 101 -86 150 -64 112 -64 133 0 149 61 16 171 102 167
130 -4 30 -20 26 -68 -17 -51 -45 -82 -62 -133 -71 -54 -10 -74 7 -127 107
l-45 86 23 30 c32 43 29 83 -9 115 -40 34 -87 34 -123 1z m85 -46 c25 -25 20
-43 -14 -47 -32 -4 -56 31 -36 54 16 19 25 18 50 -7z"/>
<path d="M7697 11573 c-4 -3 -7 -11 -7 -16 0 -6 3 -7 6 -4 4 3 15 2 25 -4 16
-8 19 -6 19 11 0 19 -28 28 -43 13z"/>
<path d="M7101 11554 c0 -11 3 -14 6 -6 3 7 2 16 -1 19 -3 4 -6 -2 -5 -13z"/>
<path d="M3586 11524 c-9 -22 3 -32 14 -14 12 19 12 30 1 30 -5 0 -12 -7 -15
-16z"/>
<path d="M3540 11471 c0 -42 10 -61 31 -61 23 0 24 9 3 38 -8 12 -13 26 -10
31 3 5 -1 11 -9 15 -11 4 -15 -2 -15 -23z"/>
<path d="M7506 11319 c-21 -23 -26 -35 -20 -49 7 -14 14 -16 32 -9 18 7 22 16
22 49 0 22 -1 40 -2 40 -2 -1 -16 -15 -32 -31z"/>
<path d="M8030 11180 c0 -5 7 -10 16 -10 8 0 12 5 9 10 -3 6 -10 10 -16 10 -5
0 -9 -4 -9 -10z"/>
<path d="M1845 11150 c-3 -5 -1 -10 4 -10 6 0 11 5 11 10 0 6 -2 10 -4 10 -3
0 -8 -4 -11 -10z"/>
<path d="M1857 11068 c-3 -13 -2 -39 3 -58 7 -32 8 -31 9 23 1 60 -3 72 -12
35z"/>
<path d="M3780 10971 c0 -10 26 -9 36 2 4 4 -2 7 -14 7 -12 0 -22 -4 -22 -9z"/>
<path d="M1860 10839 c0 -70 4 -94 16 -106 15 -15 16 -8 10 88 -3 57 -5 105
-6 107 0 1 -4 2 -10 2 -6 0 -10 -37 -10 -91z"/>
<path d="M1880 10683 c0 -12 -4 -23 -9 -25 -5 -1 -10 -70 -11 -153 -3 -184 -2
-250 5 -243 8 8 27 429 20 436 -3 3 -5 -4 -5 -15z"/>
<path d="M8836 10666 c-16 -14 -49 -27 -72 -31 -48 -7 -60 -17 -40 -34 25 -21
176 40 176 71 0 25 -29 22 -64 -6z"/>
<path d="M4020 10516 c0 -9 5 -16 10 -16 6 0 10 4 10 9 0 6 -4 13 -10 16 -5 3
-10 -1 -10 -9z"/>
<path d="M2360 10460 c0 -15 7 -20 26 -20 20 0 25 4 20 16 -3 9 -6 18 -6 20 0
2 -9 4 -20 4 -13 0 -20 -7 -20 -20z"/>
<path d="M2312 10423 c34 -72 48 -81 48 -34 0 17 -6 31 -16 35 -21 8 -36 8
-32 -1z"/>
<path d="M2412 10398 c-19 -19 -14 -30 10 -26 13 2 24 11 26 21 4 20 -18 23
-36 5z"/>
<path d="M2450 10270 c0 -5 5 -10 11 -10 6 0 9 -7 5 -15 -3 -9 0 -15 10 -15
20 0 30 30 13 41 -19 12 -39 11 -39 -1z"/>
<path d="M1850 10204 c0 -10 5 -26 10 -34 8 -11 9 -7 4 15 -8 37 -14 45 -14
19z"/>
<path d="M2468 10213 c7 -3 16 -2 19 1 4 3 -2 6 -13 5 -11 0 -14 -3 -6 -6z"/>
<path d="M2560 10200 c-9 -16 -8 -20 5 -20 8 0 15 9 15 20 0 11 -2 20 -5 20
-2 0 -9 -9 -15 -20z"/>
<path d="M6820 10190 c0 -5 7 -10 16 -10 8 0 12 5 9 10 -3 6 -10 10 -16 10 -5
0 -9 -4 -9 -10z"/>
<path d="M7520 10170 c0 -5 5 -10 10 -10 6 0 10 5 10 10 0 6 -4 10 -10 10 -5
0 -10 -4 -10 -10z"/>
<path d="M7814 10125 c-8 -21 3 -34 26 -28 23 6 25 14 8 31 -16 16 -27 15 -34
-3z"/>
<path d="M6980 10110 c0 -5 5 -10 11 -10 6 0 9 -6 6 -14 -8 -19 14 -26 84 -26
52 0 59 2 59 20 0 17 -7 20 -40 20 -22 0 -40 5 -40 10 0 6 -18 10 -40 10 -22
0 -40 -4 -40 -10z"/>
<path d="M7460 10110 c0 -5 5 -10 10 -10 6 0 10 5 10 10 0 6 -4 10 -10 10 -5
0 -10 -4 -10 -10z"/>
<path d="M1863 10060 c0 -25 2 -35 4 -22 2 12 2 32 0 45 -2 12 -4 2 -4 -23z"/>
<path d="M7515 10077 c-18 -28 -11 -57 15 -57 11 0 22 -4 25 -10 3 -5 19 -10
36 -10 33 0 41 26 12 37 -10 4 -30 20 -45 35 l-27 29 -16 -24z"/>
<path d="M7680 10091 c0 -5 7 -12 16 -15 24 -9 28 -7 14 9 -14 17 -30 20 -30
6z"/>
<path d="M7825 10083 c-27 -3 -45 -11 -53 -24 -18 -29 -5 -42 23 -23 20 13 29
14 59 3 29 -11 38 -10 60 5 14 9 26 23 26 31 0 15 -20 17 -115 8z"/>
<path d="M2540 10060 c0 -11 5 -20 10 -20 6 0 10 9 10 20 0 11 -4 20 -10 20
-5 0 -10 -9 -10 -20z"/>
<path d="M2641 10061 c-17 -11 -7 -41 13 -41 13 0 26 20 26 41 0 11 -21 11
-39 0z"/>
<path d="M8020 10060 c0 -5 7 -10 15 -10 8 0 15 5 15 10 0 6 -7 10 -15 10 -8
0 -15 -4 -15 -10z"/>
<path d="M7220 10040 c0 -15 -7 -20 -25 -20 -46 0 -29 -28 23 -36 78 -12 205
-10 209 2 5 16 -58 37 -71 24 -18 -18 -53 -11 -59 11 -3 12 -10 18 -17 14 -6
-4 -22 1 -35 9 -24 16 -25 15 -25 -4z"/>
<path d="M6570 10035 c-14 -16 -3 -20 19 -6 8 5 9 11 3 15 -5 3 -15 -1 -22 -9z"/>
<path d="M6920 10032 c0 -17 16 -30 78 -64 26 -15 36 -16 52 -6 11 7 20 16 20
21 0 4 -4 6 -9 3 -14 -9 -41 4 -41 20 0 14 -60 44 -86 44 -8 0 -14 -8 -14 -18z"/>
<path d="M6713 10029 c-47 -14 -40 -29 13 -29 37 0 45 3 42 17 -4 21 -15 23
-55 12z"/>
<path d="M6806 10032 c-2 -4 -1 -14 3 -21 11 -18 45 -10 49 12 3 12 -3 17 -22
17 -14 0 -27 -4 -30 -8z"/>
<path d="M2597 10013 c-12 -11 -8 -23 8 -23 8 0 15 7 15 15 0 16 -12 20 -23 8z"/>
<path d="M5490 10010 c0 -5 5 -10 10 -10 6 0 10 5 10 10 0 6 -4 10 -10 10 -5
0 -10 -4 -10 -10z"/>
<path d="M7659 10015 c0 0 -2 -10 -5 -23 -4 -20 -1 -23 23 -20 20 2 29 9 31
25 3 19 -1 23 -22 21 -14 -1 -26 -3 -27 -3z"/>
<path d="M6645 10000 c-3 -5 -1 -10 4 -10 6 0 11 5 11 10 0 6 -2 10 -4 10 -3
0 -8 -4 -11 -10z"/>
<path d="M8254 9997 c-3 -10 -4 -43 0 -73 7 -58 -4 -94 -29 -94 -20 0 -19 -44
1 -65 26 -25 39 -12 36 34 -1 23 4 62 13 87 19 56 19 85 1 110 -14 18 -15 18
-22 1z"/>
<path d="M2633 9983 c-12 -4 -19 -63 -8 -63 9 0 50 25 57 35 21 28 -8 45 -49
28z"/>
<path d="M5613 9983 c-20 -7 -16 -43 5 -43 9 0 34 -3 54 -6 35 -6 37 -5 33 16
-2 13 -6 24 -7 25 -8 6 -75 13 -85 8z"/>
<path d="M7530 9964 c0 -21 -5 -24 -35 -24 -19 0 -35 -4 -35 -9 0 -5 -9 -13
-20 -16 -11 -3 -20 -13 -20 -22 0 -21 67 -9 95 18 12 10 35 22 53 25 17 4 37
12 43 20 11 13 8 15 -63 29 -13 2 -18 -3 -18 -21z"/>
<path d="M8067 9979 c-10 -6 -27 -9 -38 -6 -12 3 -29 -5 -47 -22 -15 -15 -35
-30 -44 -34 -10 -3 -18 -15 -18 -25 0 -10 -9 -28 -20 -40 -13 -13 -22 -41 -26
-74 -4 -41 -11 -59 -33 -79 -16 -15 -34 -28 -41 -31 -17 -5 5 -48 24 -48 21 0
66 58 66 86 0 14 6 24 15 24 8 0 19 17 26 40 7 22 16 40 21 40 4 0 8 11 8 25
0 14 -4 25 -10 25 -24 0 -7 20 35 40 25 12 47 26 51 31 9 16 114 11 120 -6 4
-8 15 -15 25 -15 15 0 19 7 19 40 0 22 -4 40 -10 40 -5 0 -10 -6 -10 -14 0
-24 -32 -28 -52 -6 -21 22 -34 24 -61 9z"/>
<path d="M6496 9964 c-47 -15 -48 -16 -28 -30 17 -12 29 -12 67 -3 25 6 45 15
45 20 0 5 8 9 18 10 14 0 14 2 -3 9 -28 12 -43 11 -99 -6z"/>
<path d="M4660 9951 c0 -10 50 -19 68 -13 27 9 9 22 -28 22 -22 0 -40 -4 -40
-9z"/>
<path d="M1827 9918 c-7 -26 -1 -38 19 -38 16 0 17 5 8 38 -8 28 -20 28 -27 0z"/>
<path d="M5780 9920 c0 -5 14 -10 30 -10 17 0 30 5 30 10 0 6 -13 10 -30 10
-16 0 -30 -4 -30 -10z"/>
<path d="M6365 9913 c-11 -2 -44 -11 -74 -20 -36 -10 -70 -13 -107 -9 -50 6
-54 5 -54 -14 0 -18 -6 -20 -50 -19 -28 1 -53 -1 -57 -4 -38 -39 233 -19 312
22 21 12 45 21 52 21 14 0 18 16 6 23 -5 2 -17 2 -28 0z"/>
<path d="M5967 9894 c-9 -10 4 -34 19 -34 8 0 14 9 14 20 0 19 -19 27 -33 14z"/>
<path d="M7320 9876 c0 -11 9 -16 26 -16 31 0 28 23 -4 28 -15 2 -22 -2 -22
-12z"/>
<path d="M2590 9865 c-8 -9 -8 -15 -2 -15 12 0 26 19 19 26 -2 2 -10 -2 -17
-11z"/>
<path d="M2719 9846 c9 -11 9 -15 -1 -19 -7 -3 -3 -6 9 -6 16 -1 20 3 16 19
-3 11 -12 20 -20 20 -12 0 -13 -3 -4 -14z"/>
<path d="M1840 9840 c-12 -8 -12 -11 3 -28 17 -18 17 -20 -8 -36 -14 -9 -25
-22 -25 -29 0 -7 -11 -28 -23 -47 -13 -19 -26 -45 -30 -58 -4 -19 -2 -23 16
-20 16 2 23 11 25 31 2 16 9 27 18 27 8 0 18 8 21 17 4 10 17 28 30 41 26 26
29 47 9 59 -8 4 -16 18 -18 30 -2 17 -7 20 -18 13z"/>
<path d="M2022 9838 c-57 -13 -46 -22 29 -24 59 -1 84 10 58 27 -17 10 -30 10
-87 -3z"/>
<path d="M4811 9834 c0 -11 3 -14 6 -6 3 7 2 16 -1 19 -3 4 -6 -2 -5 -13z"/>
<path d="M4765 9830 c3 -5 11 -10 16 -10 6 0 7 5 4 10 -3 6 -11 10 -16 10 -6
0 -7 -4 -4 -10z"/>
<path d="M2235 9820 c-7 -11 53 -39 162 -74 96 -31 107 -31 152 -7 44 23 28
32 -50 29 -44 -2 -64 2 -73 12 -6 9 -26 17 -44 18 -19 2 -49 10 -67 18 -40 16
-71 18 -80 4z"/>
<path d="M2610 9790 c-8 -5 -11 -12 -8 -16 10 -9 58 4 58 16 0 13 -30 13 -50
0z"/>
<path d="M6465 9762 c-32 -6 -47 -31 -29 -50 19 -18 3 -38 -23 -28 -13 5 -14
9 -4 15 10 6 9 10 -4 15 -37 14 -53 5 -89 -51 l-37 -57 22 -17 c24 -18 49 -15
49 6 0 7 8 23 19 36 16 20 21 21 35 10 9 -7 16 -24 16 -37 0 -20 -5 -24 -30
-24 -31 0 -36 -6 -21 -28 8 -13 58 -21 176 -27 215 -10 325 -3 362 25 48 37
73 66 73 85 0 26 -41 66 -100 96 -37 20 -63 24 -150 26 -58 2 -137 4 -175 6
-39 1 -79 1 -90 -1z m435 -127 c0 -8 -6 -15 -14 -15 -8 0 -16 7 -20 15 -4 10
1 15 14 15 11 0 20 -7 20 -15z"/>
<path d="M12435 9739 c-10 -15 3 -25 16 -12 7 7 7 13 1 17 -6 3 -14 1 -17 -5z"/>
<path d="M8296 9702 c-2 -4 -7 -24 -11 -45 -4 -20 -11 -37 -16 -37 -14 0 -11
-58 4 -63 8 -4 9 -8 2 -14 -16 -12 -38 -157 -25 -161 7 -3 7 -8 2 -15 -15 -19
-30 -156 -27 -247 2 -84 22 -160 52 -207 22 -33 36 -29 29 7 -3 17 -9 45 -12
63 -4 17 -13 40 -22 50 -18 20 -21 82 -10 227 10 125 17 162 38 182 14 13 17
27 13 62 -6 45 9 82 28 70 5 -3 6 2 3 10 -4 10 -18 16 -35 16 -16 0 -29 5 -29
10 0 6 7 10 16 10 21 0 44 24 44 47 0 19 -36 48 -44 35z"/>
<path d="M12398 9702 c-22 -4 -23 -16 -3 -32 8 -7 15 -23 15 -36 0 -25 17 -41
31 -27 5 5 2 27 -7 53 -18 52 -14 47 -36 42z"/>
<path d="M9558 9693 c12 -2 32 -2 45 0 12 2 2 4 -23 4 -25 0 -35 -2 -22 -4z"/>
<path d="M10900 9689 c0 -5 5 -7 10 -4 6 3 10 8 10 11 0 2 -4 4 -10 4 -5 0
-10 -5 -10 -11z"/>
<path d="M4980 9670 c-54 -9 -110 -28 -130 -45 -8 -7 -31 -20 -51 -28 -27 -11
-40 -24 -48 -50 -6 -18 -9 -41 -6 -49 8 -19 77 -38 138 -38 27 0 47 -5 50 -12
3 -10 37 -13 125 -12 106 1 123 4 150 22 16 12 37 22 44 22 27 0 49 36 46 74
-3 42 -24 66 -59 65 -13 -1 -51 10 -84 24 -73 31 -115 37 -175 27z m120 -80
c12 -8 9 -10 -12 -10 -16 0 -28 5 -28 10 0 13 20 13 40 0z m-252 -67 c6 -19
-25 -16 -32 3 -4 11 -1 14 11 12 9 -2 18 -9 21 -15z"/>
<path d="M9350 9660 c19 -13 30 -13 30 0 0 6 -10 10 -22 10 -19 0 -20 -2 -8
-10z"/>
<path d="M12062 9628 c-18 -18 -14 -28 11 -28 29 0 37 7 30 26 -6 17 -25 18
-41 2z"/>
<path d="M12500 9616 c0 -9 7 -12 20 -9 11 3 20 9 20 14 0 5 -9 9 -20 9 -11 0
-20 -6 -20 -14z"/>
<path d="M7739 9592 c-31 -24 -89 -40 -168 -46 -66 -6 -138 -23 -157 -38 -7
-5 -15 -25 -19 -46 -3 -20 -13 -47 -20 -58 -15 -23 -41 -111 -57 -189 -19 -96
-40 -157 -57 -162 -9 -4 -28 -15 -43 -25 -14 -10 -36 -18 -47 -18 -22 0 -28
-14 -12 -25 6 -3 29 -1 52 4 46 10 128 85 130 118 0 10 2 25 4 33 18 69 25 89
39 115 9 17 16 45 16 63 0 19 9 45 20 59 11 14 24 43 30 63 15 56 72 80 202
85 107 3 142 19 136 59 -4 27 -20 30 -49 8z"/>
<path d="M1706 9568 c-8 -12 -13 -24 -11 -28 2 -4 -9 -20 -25 -35 -17 -16 -30
-35 -30 -42 0 -7 -6 -13 -14 -13 -12 0 -28 -14 -80 -70 -27 -28 -77 -40 -196
-44 -81 -4 -106 -8 -122 -23 -12 -10 -35 -18 -56 -18 -27 0 -39 -5 -47 -22 -7
-13 -15 -20 -18 -16 -7 7 -67 -55 -67 -69 0 -23 90 11 111 42 9 13 29 23 54
26 22 3 59 14 82 25 31 14 48 16 73 9 25 -7 45 -4 95 15 84 31 156 72 175 99
8 11 32 38 53 59 21 20 35 42 32 48 -4 5 -2 15 3 22 16 20 24 57 13 57 -5 0
-17 -10 -25 -22z"/>
<path d="M5579 9346 c-2 -3 -87 -6 -187 -7 l-183 -2 -72 -35 c-40 -20 -74 -38
-77 -42 -3 -4 -29 -9 -58 -12 -43 -4 -59 -11 -84 -37 -17 -17 -38 -31 -48 -31
-23 0 -50 -31 -50 -58 0 -33 18 -72 37 -79 10 -4 29 -15 43 -25 41 -29 164
-64 315 -89 152 -24 489 -11 626 24 111 30 255 95 267 122 13 29 1 86 -25 119
-45 56 -215 122 -253 98 -29 -18 -46 -15 -58 12 -6 14 -19 25 -29 25 -10 0
-40 5 -68 10 -55 11 -89 13 -96 7z m306 -166 c-3 -5 -10 -10 -16 -10 -5 0 -9
5 -9 10 0 6 7 10 16 10 8 0 12 -4 9 -10z m144 -17 c10 -20 9 -23 -7 -23 -22 0
-37 37 -18 43 13 5 11 7 25 -20z m-1101 -72 c-2 -14 -8 -26 -14 -28 -18 -6
-32 39 -22 67 9 25 10 25 24 5 8 -11 14 -31 12 -44z m952 -22 c0 -5 -4 -9 -10
-9 -5 0 -10 7 -10 16 0 8 5 12 10 9 6 -3 10 -10 10 -16z m-142 -35 c30 -8 28
-20 -4 -28 -29 -8 -50 5 -40 23 8 13 12 13 44 5z"/>
<path d="M8777 9174 c-11 -12 13 -43 28 -38 22 9 19 44 -3 44 -10 0 -22 -3
-25 -6z"/>
<path d="M2285 9082 c-11 -2 -38 -15 -60 -30 -55 -38 -58 -70 -10 -107 42 -32
155 -75 196 -75 15 0 38 -4 51 -9 14 -5 63 -3 128 5 58 8 116 14 130 13 51 -2
67 1 88 21 52 49 6 122 -89 142 -32 6 -59 16 -59 20 0 13 -45 9 -84 -7 -35
-15 -41 -14 -96 5 -36 13 -79 20 -108 19 -27 -1 -53 0 -58 2 -5 3 -18 3 -29 1z
m43 -61 c10 -6 7 -12 -13 -25 -29 -19 -55 -15 -55 8 0 21 45 32 68 17z m412
-64 c0 -20 0 -20 -15 -1 -19 25 -19 35 0 28 8 -4 15 -16 15 -27z m-300 -7 c0
-5 -4 -10 -10 -10 -5 0 -10 5 -10 10 0 6 5 10 10 10 6 0 10 -4 10 -10z"/>
<path d="M10152 9038 c-20 -20 -14 -38 12 -38 30 0 42 16 26 35 -15 18 -22 19
-38 3z"/>
<path d="M7016 8977 c-16 -13 -26 -28 -23 -34 7 -12 -14 -23 -42 -23 -11 0
-24 -16 -36 -42 -10 -24 -26 -51 -36 -61 -23 -22 -24 -39 -4 -77 17 -32 25
-36 42 -19 7 7 8 21 2 42 -6 22 -5 35 5 46 7 9 23 37 35 63 13 28 31 50 44 54
12 4 24 9 27 13 3 3 18 13 34 21 16 8 29 20 28 25 -3 20 -48 15 -76 -8z"/>
<path d="M800 8935 c-7 -8 -25 -15 -40 -15 -25 0 -130 -28 -192 -52 -30 -11
-38 -42 -13 -52 8 -3 35 3 59 14 25 10 53 19 63 19 10 0 53 12 96 27 66 23 77
30 77 51 0 27 -30 32 -50 8z"/>
<path d="M8325 8860 c-3 -5 4 -15 17 -21 13 -6 25 -20 25 -32 1 -12 27 -46 58
-75 30 -30 55 -60 55 -67 0 -8 5 -17 11 -21 6 -3 22 -30 34 -58 13 -28 35 -64
49 -80 14 -16 26 -40 26 -53 0 -13 5 -34 11 -45 7 -13 11 -61 9 -117 -1 -53
-3 -134 -4 -181 0 -47 -5 -88 -9 -91 -5 -3 -9 -67 -9 -142 0 -115 3 -142 21
-182 12 -26 21 -53 21 -59 0 -14 37 -48 68 -65 11 -6 23 -23 27 -38 9 -41 59
-93 89 -93 11 0 6 18 -7 32 -8 7 -17 26 -21 41 -3 15 -11 27 -16 27 -6 0 -10
7 -10 15 0 21 -18 19 -23 -2 -3 -11 -5 -7 -6 10 -1 17 -15 43 -38 68 -35 38
-63 95 -63 132 0 9 -4 17 -10 17 -5 0 -10 5 -10 11 0 5 4 7 10 4 14 -9 19 24
25 175 3 74 9 169 13 210 8 78 -7 248 -26 308 -6 18 -22 46 -36 63 -14 17 -29
42 -33 57 -7 31 -70 102 -90 102 -7 0 -20 18 -29 40 -9 22 -20 40 -25 40 -5 0
-26 18 -46 40 -39 42 -48 47 -58 30z"/>
<path d="M418 8801 c-39 -14 -44 -18 -31 -29 16 -15 48 -10 78 12 34 25 6 36
-47 17z"/>
<path d="M6550 8695 c-30 -7 -92 -27 -138 -44 -49 -18 -103 -31 -130 -31 -26
0 -67 -10 -92 -21 -39 -19 -43 -22 -25 -29 25 -11 79 -12 88 -3 4 3 48 17 98
29 49 13 104 30 122 39 43 22 192 31 241 15 53 -17 101 -18 117 -1 11 12 9 13
-10 8 -14 -3 -33 1 -48 10 -24 16 -81 31 -138 38 -16 2 -55 -3 -85 -10z"/>
<path d="M1598 8672 c-32 -15 -58 -31 -58 -37 0 -7 -14 -9 -35 -7 -23 3 -45
-2 -63 -14 -46 -31 -125 -57 -169 -55 -23 1 -45 -3 -48 -9 -8 -13 -82 -13 -90
0 -3 6 -30 10 -58 10 -60 0 -99 9 -92 20 6 10 -42 23 -55 15 -5 -3 -27 6 -49
21 -22 14 -55 27 -73 27 -27 2 -34 -2 -36 -20 -3 -20 1 -23 27 -23 16 0 33 -5
36 -10 4 -6 15 -8 25 -5 12 4 27 -2 39 -14 12 -12 33 -21 49 -21 15 0 39 -8
52 -17 19 -13 52 -18 145 -21 137 -5 229 9 260 38 12 11 32 20 46 20 13 0 42
11 64 25 22 13 50 25 62 25 12 0 44 11 70 25 41 22 51 24 73 14 14 -6 77 -13
140 -15 97 -4 117 -7 130 -23 23 -26 54 -41 90 -41 18 0 29 -4 25 -10 -6 -10
40 -26 63 -22 6 2 12 -1 12 -6 0 -22 65 -34 192 -35 135 -1 166 3 228 30 35
16 70 48 70 65 0 16 -57 8 -74 -11 -9 -10 -46 -29 -82 -41 -70 -23 -70 -23
-254 11 -30 6 -62 11 -70 12 -8 2 -20 6 -27 10 -6 4 -19 4 -28 1 -10 -4 -28 4
-48 24 -18 16 -48 33 -67 37 -19 4 -44 13 -55 20 -29 18 -149 35 -237 34 -56
-1 -86 -7 -130 -27z"/>
<path d="M504 8673 c-7 -7 -20 -13 -29 -13 -9 0 -25 -5 -36 -10 -13 -7 -19 -7
-19 0 0 5 -9 2 -19 -7 -33 -30 -45 -38 -83 -56 -44 -21 -47 -37 -21 -116 10
-33 22 -51 32 -51 13 0 16 12 16 64 1 93 14 111 94 131 36 9 95 20 131 23 36
4 71 11 78 15 7 5 12 4 12 -2 0 -6 19 -10 43 -10 23 1 34 3 24 6 -14 4 -16 8
-6 19 10 12 4 14 -37 16 -121 5 -168 2 -180 -9z"/>
<path d="M7814 8665 c-9 -14 -22 -24 -29 -21 -19 7 -97 -45 -142 -94 -25 -28
-48 -67 -59 -103 -11 -33 -26 -59 -36 -63 -11 -3 -19 -21 -24 -52 -4 -26 -11
-58 -16 -72 -32 -83 -49 -273 -34 -373 13 -84 163 -247 228 -247 16 0 38 -5
50 -11 53 -28 160 -5 214 46 12 11 37 32 55 46 37 28 125 162 135 206 4 16 10
33 14 38 4 6 10 27 14 48 4 21 15 57 25 81 15 34 19 70 20 169 0 71 -4 129 -9
132 -6 4 -10 22 -10 41 0 39 -48 140 -82 176 -67 68 -68 68 -186 74 l-110 6
-18 -27z m183 -1 c-3 -3 -12 -4 -19 -1 -8 3 -5 6 6 6 11 1 17 -2 13 -5z m-339
-212 c2 -7 -6 -12 -17 -12 -21 0 -27 11 -14 24 9 9 26 2 31 -12z m439 -494
c-2 -13 -4 -3 -4 22 0 25 2 35 4 23 2 -13 2 -33 0 -45z m-560 -45 c-3 -10 -5
-2 -5 17 0 19 2 27 5 18 2 -10 2 -26 0 -35z m381 -203 c-1 -34 -23 -41 -33
-10 -7 23 1 40 20 40 9 0 13 -11 13 -30z"/>
<path d="M5852 8661 c-36 -23 176 -103 223 -84 39 14 9 32 -105 63 -36 10 -74
21 -85 24 -11 4 -26 2 -33 -3z"/>
<path d="M6891 8586 c-8 -9 -9 -16 -2 -21 6 -3 27 -36 48 -73 20 -37 41 -70
46 -73 4 -3 10 -28 12 -55 5 -81 22 -156 35 -164 11 -7 10 -12 -4 -25 -11 -11
-16 -32 -16 -63 1 -59 -15 -211 -30 -290 -16 -78 -1 -188 35 -259 9 -18 19
-49 22 -70 3 -21 19 -53 35 -71 15 -18 28 -39 28 -47 0 -8 11 -22 25 -31 14
-9 25 -22 25 -28 0 -7 29 -42 65 -79 35 -36 73 -84 85 -107 11 -22 25 -40 30
-40 6 0 15 -11 20 -25 5 -14 15 -24 22 -23 7 2 13 -6 14 -17 1 -39 16 -79 40
-108 13 -16 24 -38 24 -51 0 -12 8 -32 17 -46 15 -21 17 -51 15 -237 -1 -181
1 -213 13 -213 8 0 15 -7 15 -15 0 -8 -4 -15 -10 -15 -15 0 -11 -31 9 -65 13
-23 15 -37 9 -60 -12 -40 29 -136 69 -162 15 -10 36 -27 45 -39 9 -11 42 -38
72 -59 31 -21 56 -42 56 -48 0 -5 30 -39 67 -75 67 -67 104 -131 117 -203 3
-20 15 -44 26 -54 24 -21 27 -50 5 -41 -18 7 -20 -29 -4 -71 6 -15 12 -77 13
-138 0 -60 5 -117 11 -125 5 -8 8 -23 6 -34 -1 -10 2 -15 7 -12 6 3 12 1 14
-6 9 -27 1 263 -11 379 -6 66 -10 125 -9 130 2 5 -13 23 -32 41 -19 17 -29 32
-22 32 6 0 12 9 12 20 0 23 -219 245 -266 271 -17 9 -38 32 -47 52 -10 20 -23
40 -30 44 -7 4 -18 20 -26 35 -8 15 -22 37 -33 47 -10 11 -18 29 -18 41 0 11
-5 20 -11 20 -6 0 -9 7 -6 15 9 21 10 374 2 479 -6 84 -25 142 -60 186 -7 8
-15 27 -19 42 -3 15 -17 44 -31 64 -14 20 -25 41 -25 46 0 12 -16 32 -63 80
-21 21 -35 38 -32 38 9 0 -55 80 -85 107 -14 12 -31 23 -37 23 -7 0 -13 7 -13
16 0 8 -13 34 -29 57 -15 23 -34 60 -41 82 -7 22 -21 59 -31 83 -11 23 -19 55
-19 71 0 16 -7 34 -15 41 -21 17 -20 110 2 158 13 29 17 73 19 202 1 91 7 176
12 190 7 19 6 33 -4 50 -7 14 -13 44 -14 68 0 30 -4 42 -15 42 -10 0 -15 10
-15 32 0 32 -30 85 -81 140 -22 25 -28 27 -38 14z"/>
<path d="M12335 8420 c-8 -13 3 -30 20 -30 20 0 30 21 14 31 -18 11 -26 11
-34 -1z"/>
<path d="M341 8378 c1 -13 1 -27 -1 -33 -13 -52 32 -84 53 -38 10 23 9 28 -11
41 -12 8 -22 20 -22 28 0 7 -4 16 -10 19 -6 3 -9 -4 -9 -17z"/>
<path d="M5695 8264 c-44 -8 -113 -18 -154 -24 -102 -14 -203 -50 -352 -126
-143 -74 -222 -141 -203 -172 18 -28 39 -25 75 11 91 90 318 188 508 219 329
55 555 25 807 -107 104 -54 148 -80 197 -117 41 -32 57 -35 57 -11 0 57 -253
218 -435 276 -203 65 -341 79 -500 51z"/>
<path d="M414 8237 c-7 -20 1 -47 15 -47 17 0 22 33 7 49 -14 13 -16 13 -22
-2z"/>
<path d="M460 8156 c0 -17 12 -26 55 -42 17 -6 38 -15 48 -19 16 -7 18 -4 15
16 -2 20 -8 24 -35 23 -26 -2 -33 2 -33 17 0 14 -7 19 -25 19 -15 0 -25 -6
-25 -14z"/>
<path d="M11010 8101 c-108 -35 -194 -89 -294 -186 -17 -16 -62 -56 -101 -88
-38 -33 -107 -93 -151 -136 -144 -135 -229 -208 -249 -214 -19 -6 -232 -19
-340 -21 -103 -1 -823 15 -892 20 -43 3 -79 1 -92 -5 -20 -11 -20 -11 4 -64
33 -72 55 -78 273 -79 95 0 175 -5 178 -10 6 -10 -75 -87 -93 -88 -7 0 -10 -6
-7 -13 2 -7 -8 -27 -23 -45 -28 -32 -81 -100 -107 -136 -11 -16 -24 -19 -78
-17 -77 2 -99 -12 -75 -51 8 -13 17 -35 21 -50 13 -55 -43 -25 -70 37 l-13 30
-1 -39 c0 -31 6 -45 31 -67 17 -15 28 -32 25 -38 -3 -5 -9 -35 -11 -66 -3 -31
-17 -79 -30 -106 -14 -26 -36 -83 -50 -126 -29 -87 -66 -148 -96 -156 -10 -3
-19 -2 -19 3 0 11 -82 -9 -100 -24 -8 -7 -27 -16 -42 -20 -19 -4 -28 -13 -28
-26 0 -13 -7 -20 -20 -20 -26 0 -61 -40 -93 -105 -40 -81 -81 -169 -83 -180
-1 -5 -6 -19 -10 -29 -5 -14 -4 -17 4 -12 7 4 12 1 12 -9 0 -9 -5 -13 -10 -10
-16 10 -18 -9 -24 -190 -4 -146 -3 -177 12 -221 29 -83 67 -131 139 -175 33
-21 36 -21 128 -5 54 9 104 23 116 33 44 35 79 77 109 132 17 31 40 69 52 84
15 19 23 43 24 75 1 26 2 52 3 58 1 8 33 10 109 7 96 -5 120 -2 230 26 68 17
138 38 155 47 116 61 150 74 191 74 30 0 48 6 61 20 10 11 24 20 32 20 7 0 13
11 13 24 0 38 86 64 98 29 2 -8 -6 -13 -22 -13 -14 0 -26 -4 -26 -10 0 -5 -7
-7 -15 -4 -8 4 -15 1 -15 -6 0 -6 -16 -26 -35 -44 -30 -29 -35 -40 -35 -78 0
-31 6 -50 19 -62 11 -10 22 -28 25 -42 7 -27 37 -32 55 -10 14 17 -9 39 -32
30 -13 -5 -15 5 -16 55 0 35 5 63 11 68 7 3 14 1 16 -5 8 -26 24 -11 19 18 -5
25 -3 30 13 30 10 0 25 -7 34 -15 19 -19 36 -19 36 0 0 23 29 6 36 -21 6 -23
10 -24 84 -24 120 0 200 -11 200 -26 0 -17 51 -19 68 -2 9 9 12 9 12 0 0 -7
11 -12 25 -12 18 0 23 4 19 15 -4 10 0 15 15 15 12 0 21 -4 21 -10 0 -5 9 -10
19 -10 28 0 35 -17 12 -29 -13 -7 -45 -8 -98 -1 -43 5 -94 9 -113 8 -59 -2
-227 20 -250 32 -12 7 -34 10 -49 7 -14 -3 -34 -1 -43 4 -13 7 -23 4 -38 -11
-40 -40 -14 -79 53 -80 21 0 48 -6 60 -12 13 -8 68 -14 137 -15 63 -1 162 -6
220 -10 95 -7 105 -10 105 -27 0 -23 -100 -86 -177 -112 -26 -8 -50 -20 -53
-25 -10 -16 15 -49 37 -49 19 0 132 56 272 135 29 16 52 23 57 18 12 -12 39
-106 90 -313 22 -91 63 -255 90 -365 27 -111 51 -215 54 -233 2 -18 15 -79 28
-135 14 -56 37 -156 52 -222 15 -66 38 -152 52 -192 19 -55 22 -76 14 -91 -11
-21 -345 -191 -416 -212 -22 -6 -56 -17 -75 -25 -19 -7 -47 -16 -62 -19 -20
-5 -28 -13 -28 -29 0 -37 -12 -67 -26 -67 -7 0 -18 -8 -23 -18 -9 -17 -62 -36
-136 -47 -22 -3 -55 -13 -73 -23 -24 -13 -36 -14 -50 -6 -13 9 -23 7 -43 -8
-15 -11 -42 -22 -60 -23 -67 -7 -105 -17 -157 -41 -60 -28 -90 -30 -98 -9 -4
9 -19 15 -38 15 -21 0 -27 -3 -17 -9 24 -15 3 -47 -39 -60 -22 -7 -44 -10 -49
-7 -5 3 -24 -2 -42 -11 -19 -9 -56 -17 -84 -17 -34 0 -56 -5 -69 -18 -11 -10
-34 -18 -52 -18 -18 0 -43 -4 -56 -9 -55 -20 -103 -33 -137 -36 -54 -5 -124
-16 -141 -22 -8 -3 -24 -7 -35 -9 -123 -17 -161 -27 -178 -45 -14 -15 -31 -19
-86 -19 -38 0 -88 -7 -111 -15 -23 -8 -53 -12 -66 -9 -13 4 -55 0 -92 -7 -37
-7 -71 -12 -75 -11 -4 1 -34 -5 -66 -13 -33 -8 -90 -15 -128 -15 -39 0 -92 -7
-119 -15 -66 -20 -164 -19 -209 2 -33 16 -37 16 -70 0 -29 -14 -66 -17 -188
-17 -86 0 -191 -7 -242 -15 -61 -10 -129 -13 -210 -10 -66 3 -181 7 -255 10
-138 5 -190 12 -190 25 0 4 -60 8 -132 8 -361 3 -330 0 -460 42 -43 14 -66 16
-89 10 -20 -6 -39 -6 -50 0 -10 6 -35 10 -57 10 -21 0 -42 3 -45 7 -12 12
-151 53 -179 53 -16 0 -28 5 -28 10 0 6 -33 10 -80 10 -44 0 -80 4 -80 8 0 13
-52 36 -73 33 -10 -1 -25 3 -33 10 -8 6 -27 9 -44 5 -33 -6 -73 8 -106 36 -20
18 -21 18 -32 -7 -15 -32 -26 -32 -40 0 -7 15 -20 25 -32 25 -11 0 -20 7 -20
15 0 8 5 15 10 15 6 0 10 8 10 18 0 13 -10 18 -43 19 -23 2 -54 12 -69 23 -33
24 -64 26 -72 4 -5 -13 -16 -15 -59 -9 -28 4 -63 14 -77 23 -13 8 -39 16 -57
18 -17 2 -41 12 -52 23 -11 11 -39 25 -63 32 -47 12 -58 23 -58 57 0 19 -5 22
-36 22 -28 0 -37 5 -41 20 -4 16 -11 19 -27 14 -11 -3 -24 -10 -29 -15 -4 -5
-4 -7 -1 -4 9 6 64 -24 64 -35 0 -16 -31 -11 -93 14 -71 29 -88 43 -67 56 8 5
27 10 41 10 17 0 33 9 43 25 9 14 23 25 30 25 7 0 19 7 26 15 7 8 28 18 49 21
20 4 103 31 185 61 82 29 177 60 210 69 34 8 88 23 121 33 79 24 206 56 280
71 52 11 223 52 335 80 19 5 55 13 80 18 180 39 248 55 268 63 13 5 33 9 45
10 20 0 51 14 161 73 46 25 41 40 -15 44 -33 2 -57 -4 -94 -24 -47 -25 -86
-37 -225 -65 -30 -6 -86 -19 -125 -29 -38 -11 -140 -35 -225 -54 -392 -89
-483 -111 -595 -146 -66 -21 -129 -40 -140 -43 -11 -3 -85 -28 -165 -55 -80
-28 -194 -64 -255 -82 -63 -18 -170 -61 -250 -100 -373 -183 -484 -207 -571
-125 -29 28 -34 39 -34 78 0 37 7 55 39 98 73 100 83 106 100 59 12 -37 30
-38 69 -5 17 14 47 32 69 41 21 9 61 31 88 49 81 53 188 115 198 115 4 0 70
30 145 66 168 82 229 107 452 189 96 35 211 78 255 95 44 18 112 40 150 49 39
10 79 22 90 28 11 6 79 23 150 38 72 14 157 35 190 45 33 10 83 22 110 25 28
4 70 13 95 20 25 7 71 16 103 19 193 20 262 81 243 211 -10 61 -46 94 -146
134 -167 66 -213 74 -455 76 -121 1 -233 -2 -250 -7 -16 -5 -61 -13 -100 -17
-81 -10 -181 -33 -280 -66 -38 -13 -86 -26 -105 -30 -31 -7 -224 -88 -350
-148 -57 -27 -123 -66 -225 -134 -44 -29 -84 -53 -88 -53 -4 0 -38 -22 -75
-49 -37 -26 -81 -56 -99 -65 -41 -21 -250 -223 -328 -316 -33 -40 -78 -93
-101 -119 -48 -54 -103 -132 -133 -187 -11 -21 -34 -61 -51 -89 -47 -79 -135
-244 -168 -315 -56 -122 -82 -181 -82 -187 0 -7 -65 -153 -97 -218 -14 -27
-33 -75 -44 -105 -30 -91 -68 -170 -82 -170 -22 0 -265 266 -315 345 -14 22
-49 76 -77 120 -65 98 -124 210 -154 290 -13 33 -34 85 -47 115 -12 30 -29 80
-38 110 -8 30 -24 90 -36 133 -21 73 -22 99 -22 408 1 311 2 335 23 405 17 58
29 79 55 99 18 14 35 25 38 25 17 0 128 58 169 89 131 98 373 335 406 399 7
13 38 56 68 95 116 151 253 497 283 717 9 64 5 80 -21 80 -12 0 -21 -9 -24
-27 -19 -90 -49 -203 -62 -233 -8 -19 -28 -74 -44 -121 -29 -90 -100 -238
-153 -324 -103 -168 -320 -409 -461 -513 -106 -78 -275 -156 -420 -193 -124
-33 -308 -17 -377 32 -14 11 -33 19 -42 19 -27 0 -94 69 -112 116 -13 35 -15
60 -10 120 9 98 39 158 108 216 81 68 110 83 293 154 80 30 322 149 345 168 8
7 22 15 31 19 27 9 158 96 259 170 171 127 400 379 400 440 0 37 -38 13 -95
-59 -62 -78 -215 -227 -295 -287 -170 -127 -210 -154 -370 -248 -112 -65 -238
-118 -283 -119 -15 0 -42 -7 -59 -16 -41 -21 -72 -7 -88 40 -7 22 -24 43 -46
56 -40 25 -64 57 -64 84 0 11 -10 30 -21 43 -27 28 -30 26 126 47 66 8 136 20
156 26 66 19 112 69 76 83 -7 3 -44 -6 -83 -19 -61 -21 -87 -23 -224 -23 -158
0 -200 7 -256 44 -40 26 -17 36 56 24 179 -29 428 -9 580 47 155 57 399 241
482 364 149 219 207 453 158 639 -34 134 -71 204 -157 299 -99 109 -182 171
-310 232 -57 27 -106 57 -110 67 -4 9 3 44 15 77 25 69 27 98 11 129 -15 28
-28 37 -56 37 -24 0 -31 -17 -53 -140 -16 -89 -21 -94 -95 -86 -33 3 -109 1
-170 -4 -106 -11 -111 -10 -127 10 -9 11 -19 46 -22 78 -11 102 -29 167 -49
170 -35 7 -64 -8 -77 -38 -11 -26 -10 -41 4 -93 37 -131 36 -130 19 -149 -8
-10 -25 -20 -36 -24 -11 -3 -76 -33 -145 -65 -68 -33 -132 -59 -141 -59 -10 0
-27 18 -41 43 -49 87 -99 147 -125 147 -13 0 -27 4 -30 10 -7 12 34 51 84 82
56 34 172 128 178 145 3 8 1 19 -4 24 -7 7 -36 -4 -89 -35 -44 -25 -92 -48
-108 -52 -46 -11 -241 -212 -300 -311 -46 -74 -85 -179 -86 -228 -1 -65 73
-185 126 -205 22 -9 24 -14 18 -47 -4 -21 -13 -54 -21 -73 -51 -122 -53 -286
-6 -450 22 -79 101 -220 122 -220 5 0 21 -19 37 -42 15 -24 44 -57 63 -74 l36
-32 0 -653 c0 -850 -3 -1092 -15 -1181 -5 -40 -10 -179 -11 -308 -1 -129 -5
-242 -10 -251 -5 -9 -21 -19 -36 -22 -16 -3 -50 -10 -78 -16 -51 -11 -306 -45
-450 -62 -44 -4 -124 -14 -177 -20 l-98 -11 0 -703 0 -703 27 -7 c15 -3 32
-13 38 -22 12 -16 140 -34 205 -29 19 2 25 1 13 -1 -35 -7 -31 -43 5 -43 53 1
167 21 170 30 6 15 52 12 52 -4 0 -29 25 -33 150 -25 69 4 199 11 290 14 91 3
194 10 230 15 82 12 197 13 202 1 3 -8 645 -27 794 -23 71 2 83 -1 104 -20
l24 -22 -25 -8 c-14 -4 3 -6 40 -3 61 5 107 27 96 45 -8 13 343 24 368 12 22
-10 22 -11 -4 -11 -42 -1 -43 -15 -2 -28 37 -11 35 -11 -39 -12 -62 -1 -78 -4
-78 -16 0 -11 -11 -15 -40 -15 -29 0 -40 4 -40 15 0 11 -11 15 -39 15 -39 0
-39 0 -42 -42 l-4 -43 40 1 c22 1 95 2 163 3 l122 1 0 39 c0 38 0 39 46 46 25
3 48 4 52 1 3 -3 0 -6 -6 -6 -19 0 -14 -45 6 -63 10 -10 33 -17 50 -17 17 0
33 -4 36 -9 3 -5 18 -12 33 -15 86 -21 103 -28 103 -41 0 -11 12 -15 40 -15
22 0 40 4 40 9 0 16 79 30 115 20 37 -10 77 7 89 37 3 8 12 14 21 14 8 0 15 5
15 10 0 6 18 10 40 10 22 0 40 -4 40 -10 0 -5 18 -10 40 -10 27 0 40 4 40 13
0 22 213 31 270 11 31 -11 45 -12 50 -4 5 9 184 34 185 26 0 0 8 -18 18 -38
17 -38 37 -51 37 -23 0 22 33 18 48 -5 12 -19 52 -29 52 -12 0 4 4 13 9 21 7
11 13 10 35 -4 19 -13 30 -14 39 -7 7 6 23 9 34 6 17 -5 25 1 38 25 9 18 21
29 27 25 12 -8 124 -6 151 2 21 7 22 32 1 55 -15 17 -14 18 22 12 40 -7 91
-48 86 -69 -4 -18 34 -27 59 -13 12 6 41 9 66 6 35 -4 51 -13 82 -46 34 -37
43 -41 84 -41 34 0 49 -5 60 -20 8 -11 28 -23 45 -26 17 -4 37 -13 44 -21 10
-13 8 -19 -15 -37 -15 -12 -27 -31 -27 -43 0 -31 -17 -37 -31 -11 -7 13 -17
26 -22 30 -8 4 -7 14 0 31 14 31 9 37 -32 37 -17 0 -36 5 -43 12 -9 9 -12 8
-12 -7 0 -12 13 -26 31 -35 31 -15 40 -35 17 -35 -7 0 -12 6 -10 13 1 6 -5 12
-14 12 -8 0 -12 -4 -9 -10 3 -5 1 -10 -4 -10 -6 0 -11 4 -11 9 0 5 -9 7 -20 4
-14 -4 -23 2 -31 21 -7 14 -15 26 -19 26 -3 0 -15 8 -26 17 -25 23 -82 43
-123 43 -17 0 -45 9 -60 21 l-29 21 -93 -22 c-95 -22 -127 -34 -186 -69 -47
-27 -64 -42 -73 -67 -10 -25 -66 -42 -82 -26 -7 7 -19 7 -36 1 -34 -13 -735
-4 -740 9 -2 7 -15 7 -38 0 -20 -5 -52 -7 -72 -3 -53 8 -253 12 -258 4 -11
-18 -196 -26 -709 -32 -77 -1 -146 -6 -153 -11 -7 -4 -311 -10 -675 -13 -648
-4 -932 -9 -992 -17 -16 -2 -100 -14 -185 -25 -146 -20 -189 -20 -332 -5 l-48
5 0 -126 0 -126 152 2 c84 1 189 9 233 16 44 7 98 10 120 6 46 -7 93 -5 115 7
9 5 134 11 278 14 144 3 266 7 270 10 5 3 326 8 713 11 387 3 719 8 737 11
117 18 402 35 677 40 176 3 328 10 338 16 10 5 140 9 289 10 250 1 272 0 284
-17 10 -13 10 -23 3 -37 -8 -14 -6 -25 5 -43 18 -28 21 -71 6 -80 -6 -4 -35
-9 -64 -12 -49 -5 -57 -3 -81 21 -17 18 -37 26 -59 26 -19 0 -39 7 -46 15 -13
16 -48 20 -66 7 -19 -13 -44 -56 -44 -77 0 -42 38 -62 130 -69 85 -7 196 -9
259 -4 38 3 65 -22 45 -42 -13 -13 14 -12 -419 -10 -319 1 -342 2 -374 21 -33
20 -33 20 -68 -1 -42 -25 -72 -26 -89 -2 -12 15 -13 15 -14 1 0 -14 -30 -17
-232 -25 -128 -4 -321 -9 -428 -9 -138 -1 -202 -5 -219 -14 -17 -9 -69 -12
-185 -11 -88 1 -271 3 -406 4 -210 2 -252 4 -294 20 -39 15 -55 17 -85 8 -44
-13 -576 -5 -666 9 -157 26 -195 28 -233 14 l-37 -13 43 -7 c70 -12 45 -35
-38 -33 -19 0 -100 -5 -180 -12 -80 -6 -164 -13 -187 -14 -25 -1 -54 -10 -71
-23 -15 -11 -47 -24 -70 -28 l-42 -7 0 -61 0 -62 122 3 c95 3 126 7 135 18 9
12 18 13 47 6 29 -8 36 -8 36 4 0 11 28 14 154 14 138 0 158 -2 194 -21 39
-21 41 -21 59 -4 13 13 14 20 5 23 -6 2 -12 10 -12 18 0 8 -7 14 -15 14 -8 0
-15 4 -15 9 0 22 352 37 519 22 69 -6 286 -11 481 -10 195 0 411 0 480 -1 69
-1 302 6 518 15 276 11 413 13 460 7 37 -6 119 -8 183 -6 63 3 134 1 157 -4
23 -6 59 -6 80 -2 72 16 192 23 192 12 0 -13 -95 -43 -114 -36 -7 3 -23 -6
-37 -19 -29 -28 -86 -44 -192 -52 -42 -4 -75 -10 -72 -15 8 -13 -17 -26 -80
-39 -33 -7 -71 -17 -85 -22 -14 -4 -63 -15 -110 -23 -47 -9 -110 -24 -140 -35
-30 -10 -111 -24 -180 -31 -69 -7 -163 -16 -210 -22 -88 -9 -440 -28 -590 -31
-47 -1 -98 -7 -115 -14 -35 -13 -296 -27 -551 -27 -130 -1 -185 -5 -196 -14
-11 -9 -82 -14 -254 -17 -223 -5 -413 -22 -494 -45 -19 -6 -75 -10 -125 -10
-87 0 -128 -10 -111 -27 12 -13 221 -7 346 9 63 8 158 16 210 17 84 2 410 15
1007 40 105 5 196 12 202 15 14 9 175 -13 179 -25 5 -12 42 -12 42 1 0 6 14
10 31 10 24 0 30 -4 25 -15 -3 -9 0 -15 10 -15 8 0 13 4 9 10 -3 5 5 16 19 25
18 12 44 16 98 14 40 -1 95 1 122 6 39 6 48 5 44 -6 -3 -8 -18 -18 -34 -23
-16 -4 -51 -19 -79 -31 -27 -13 -65 -26 -84 -29 -19 -4 -42 -13 -51 -21 -16
-14 -43 -21 -230 -62 -41 -9 -115 -27 -165 -41 -128 -34 -181 -43 -260 -43
-38 0 -104 -7 -145 -15 -43 -9 -92 -13 -116 -9 -24 3 -123 10 -221 16 -98 5
-205 13 -238 17 -33 4 -116 3 -185 -2 -69 -5 -245 -8 -392 -7 l-268 1 0 -83 0
-82 115 3 c64 2 124 0 133 -4 9 -4 42 -6 72 -5 30 1 67 -2 82 -8 17 -6 38 -7
59 -1 18 6 37 6 43 1 11 -9 71 -16 238 -27 67 -5 96 -3 130 10 24 10 60 15 81
13 21 -2 40 0 43 5 3 5 29 6 60 3 31 -4 74 -2 103 5 53 12 95 6 88 -13 -2 -7
-53 -29 -113 -49 -60 -21 -136 -49 -169 -62 -133 -56 -187 -61 -593 -59 l-372
2 0 -90 0 -90 472 4 c283 3 503 9 548 16 41 6 201 16 355 22 154 6 343 14 420
18 77 3 293 3 480 -1 1050 -23 2622 -28 2839 -8 122 10 196 10 410 0 202 -10
305 -10 458 -1 256 15 970 15 1202 -1 120 -8 458 -11 996 -10 738 1 1817 0
2415 -2 127 0 574 1 995 2 421 1 813 -1 873 -5 l107 -8 0 91 0 92 -37 7 c-20
4 -343 6 -718 5 -374 -1 -822 -2 -995 -1 -173 0 -378 -4 -455 -9 -256 -18
-498 -22 -640 -11 -346 26 -517 41 -605 53 -69 9 -291 12 -820 11 -620 -1
-721 1 -700 13 14 7 55 13 96 14 39 0 87 6 105 14 25 10 123 15 382 20 251 5
369 11 420 22 40 8 82 12 94 9 13 -3 103 4 200 16 153 18 212 21 363 19 47 0
145 12 155 20 23 17 91 19 120 4 25 -13 63 -15 220 -13 105 1 327 -3 494 -10
250 -10 314 -15 361 -31 32 -11 83 -19 117 -19 34 0 70 -4 80 -9 50 -26 124
-32 341 -31 539 3 642 6 737 17 55 6 181 12 280 12 99 0 231 3 293 7 l112 6 0
71 0 71 -158 0 c-112 0 -163 4 -174 12 -12 11 -22 10 -49 -4 -29 -15 -84 -19
-369 -26 -500 -12 -495 -12 -643 -7 -75 3 -165 3 -200 0 -75 -8 -228 5 -317
26 -46 11 -141 17 -330 20 -145 3 -330 9 -410 13 -80 5 -156 8 -170 7 -37 -2
-37 17 -1 34 17 9 56 39 86 68 29 29 57 52 62 53 12 0 80 92 97 131 8 18 28
47 45 65 l31 31 182 1 c109 1 225 -5 288 -13 426 -59 436 -60 485 -80 22 -8
63 -15 92 -16 29 0 99 -9 155 -20 57 -12 157 -25 223 -30 66 -5 165 -14 220
-20 203 -21 572 -40 650 -34 106 8 113 8 163 -1 41 -7 42 -7 42 18 0 28 2 27
-105 41 -22 3 -110 8 -195 10 -286 7 -551 40 -571 69 -4 5 -10 4 -13 -2 -9
-13 -66 -15 -66 -2 0 5 -15 13 -32 16 -18 4 -37 11 -43 15 -5 4 -63 10 -128
14 -65 3 -126 10 -136 15 -16 9 -77 19 -341 55 -63 9 -126 21 -139 27 -13 5
-83 10 -155 10 -72 0 -149 5 -171 11 -25 7 -104 11 -211 9 -112 -2 -174 1
-178 8 -4 6 0 21 8 33 8 13 18 40 21 61 9 44 8 44 65 52 67 9 74 12 93 45 10
16 23 30 28 30 5 0 28 39 51 86 25 52 50 90 63 96 12 5 26 24 31 41 8 29 12
32 44 28 19 -1 37 -6 40 -10 3 -5 77 -12 165 -16 177 -9 174 -8 295 -1 288 19
1080 26 1224 11 66 -7 78 -6 74 6 -2 8 -14 15 -26 17 -30 5 -28 20 4 28 27 7
170 0 257 -12 l47 -7 0 208 0 207 -67 -7 c-38 -3 -234 -7 -438 -8 -298 -1
-377 1 -403 12 -22 9 -36 11 -40 4 -14 -20 -135 -31 -232 -22 -121 12 -140 16
-140 34 0 34 40 40 255 38 116 -1 246 -1 290 -2 92 0 305 -21 305 -30 0 -7
158 -4 320 5 94 5 106 8 127 30 l23 25 0 2533 0 2533 -51 7 c-27 4 -78 9 -112
11 -231 15 -333 20 -487 23 -96 1 -200 3 -230 4 -39 1 -63 -4 -83 -17 -24 -15
-34 -17 -60 -7 -41 14 -121 8 -171 -13 -21 -9 -76 -19 -123 -21 -97 -6 -107 2
-78 66 13 29 16 58 14 124 -4 89 -2 94 44 87 4 -1 103 3 220 9 154 7 258 17
382 39 184 32 395 51 600 54 l130 2 3 52 3 51 -98 4 c-54 2 -195 0 -313 -4
-505 -16 -905 -20 -932 -10 l-27 11 0 218 c0 228 -5 264 -46 314 -46 56 -73
63 -145 40z m88 -95 c8 -8 18 -34 23 -58 17 -91 6 -454 -20 -633 -6 -38 -18
-131 -26 -205 -9 -74 -23 -160 -30 -190 -8 -30 -19 -109 -24 -175 -6 -66 -19
-156 -30 -200 -10 -44 -24 -138 -31 -210 -7 -71 -14 -133 -16 -137 -2 -4 -9
-53 -14 -110 -6 -56 -15 -117 -21 -136 -13 -39 2 -65 35 -60 31 4 43 41 55
167 l11 114 45 48 c50 54 129 171 151 227 9 20 31 71 50 113 19 42 43 110 53
150 41 157 51 183 85 235 37 55 66 72 105 59 28 -9 26 -27 -8 -110 -16 -39
-34 -101 -41 -140 -28 -161 -78 -283 -150 -369 -43 -52 -46 -69 -12 -74 25 -4
97 58 118 102 8 17 29 60 48 96 23 45 41 106 60 200 30 154 46 198 93 257 59
75 151 79 194 9 29 -47 25 -84 -15 -126 -44 -45 -77 -107 -104 -195 -12 -38
-29 -92 -37 -120 -9 -27 -20 -70 -25 -95 -13 -72 -85 -223 -113 -239 -22 -13
-30 -12 -73 6 -27 12 -78 24 -112 28 -35 4 -76 13 -90 21 -35 18 -61 18 -69
-1 -8 -23 -1 -27 79 -40 40 -7 87 -17 103 -23 17 -6 48 -16 70 -22 53 -17 65
-27 65 -60 0 -32 21 -44 43 -27 21 17 87 119 87 135 0 8 16 50 36 95 20 45 44
118 54 162 51 216 84 303 126 325 84 45 144 -27 144 -172 0 -74 -6 -99 -54
-238 -29 -86 -58 -164 -64 -175 -20 -35 -52 -108 -52 -118 0 -6 -10 -24 -23
-41 -13 -17 -36 -53 -52 -81 -83 -144 -305 -370 -425 -433 -175 -92 -286 -104
-412 -45 -85 40 -152 102 -191 178 -32 59 -32 62 -34 215 -2 159 19 555 38
715 12 105 27 224 39 315 5 36 17 123 25 195 9 71 22 148 30 170 7 23 17 74
20 115 9 86 16 104 57 138 35 30 36 75 1 80 -16 2 -77 -53 -271 -247 -150
-151 -257 -251 -269 -251 -28 0 -143 142 -143 177 0 22 21 50 98 128 115 117
224 220 307 290 54 44 86 73 192 167 142 127 261 175 311 124z m-10261 -440
c19 -33 45 -76 59 -95 33 -47 30 -65 -19 -114 -24 -23 -62 -66 -86 -95 -60
-73 -103 -82 -153 -35 -62 59 -58 140 14 259 47 78 102 153 126 172 15 11 17
10 20 -9 2 -12 19 -49 39 -83z m990 19 c186 -39 320 -114 454 -252 106 -110
129 -151 165 -293 28 -109 26 -193 -8 -320 -36 -135 -148 -316 -247 -399 -200
-166 -309 -220 -509 -253 -115 -19 -139 -20 -257 -9 -184 16 -320 56 -401 117
-17 13 -34 24 -37 24 -18 0 -102 68 -158 127 -115 123 -177 286 -165 437 15
194 46 276 159 429 44 58 153 170 202 206 86 64 270 147 365 165 177 34 340
42 437 21z m8008 -245 c93 -12 247 -80 317 -141 54 -47 88 -101 134 -213 46
-113 27 -316 -40 -429 -27 -47 -196 -215 -331 -328 -103 -87 -347 -255 -436
-300 -138 -69 -336 -117 -435 -104 -71 9 -151 71 -182 142 -18 44 -19 58 -12
163 17 220 74 422 159 560 17 27 37 66 45 85 21 50 117 194 193 290 93 118
208 226 288 268 35 19 185 22 300 7z m861 -47 c-11 -59 -13 -82 -21 -169 -8
-100 -14 -111 -46 -92 -19 12 -43 14 -119 7 -52 -4 -99 -4 -103 0 -10 10 2 41
15 41 6 0 26 14 45 30 18 17 40 30 48 30 8 0 15 6 15 13 0 14 57 67 72 67 11
0 6 -52 -7 -82 -12 -30 9 -20 28 13 21 38 23 79 2 79 -24 0 -18 17 21 60 46
50 59 51 50 3z m415 -720 c8 -14 14 -52 14 -83 -1 -47 -7 -67 -35 -113 -57
-94 -85 -81 -56 26 8 34 18 87 22 117 3 30 7 61 9 68 7 21 31 13 46 -15z
m-2342 -284 c-5 -11 -11 -44 -13 -75 -4 -68 -18 -86 -40 -51 -14 21 -15 29 -4
53 7 16 17 32 23 36 6 5 5 8 -2 8 -21 0 -15 37 10 62 21 22 22 22 29 5 5 -10
3 -27 -3 -38z m1201 -169 c0 -5 -5 -10 -11 -10 -5 0 -7 -5 -3 -11 6 -10 -12
-28 -28 -29 -9 0 -6 30 5 48 10 14 37 16 37 2z m68 -38 c3 -9 -2 -13 -14 -10
-9 1 -19 9 -22 16 -3 9 2 13 14 10 9 -1 19 -9 22 -16z m-1293 -79 c-3 -18 -10
-33 -14 -33 -14 0 -34 29 -28 42 2 7 5 18 7 23 1 6 7 19 12 30 11 18 11 18 20
-5 5 -14 7 -40 3 -57z m1163 52 c0 -19 -6 -25 -24 -25 -32 0 -38 16 -12 34 30
22 36 20 36 -9z m399 10 c14 -10 32 -13 47 -9 23 5 45 -10 32 -23 -8 -8 -105
12 -147 31 l-34 14 40 1 c22 1 50 -6 62 -14z m253 -23 c-1 -22 -19 -34 -41
-26 -13 4 -29 7 -36 6 -6 -2 -14 2 -18 8 -3 5 2 10 13 10 11 0 25 7 32 15 9
11 17 12 31 4 10 -5 19 -13 19 -17z m-612 -10 c2 -7 -2 -10 -12 -6 -9 3 -16
11 -16 16 0 13 23 5 28 -10z m610 -98 c3 -24 -24 -58 -39 -49 -5 4 -9 22 -9
41 0 31 3 35 23 32 13 -2 23 -11 25 -24z m-1794 -10 c3 -9 6 -25 6 -37 -1 -22
-1 -22 -20 2 -11 13 -20 29 -20 37 0 19 26 18 34 -2z m1796 -89 c0 -20 -40
-55 -62 -55 -17 0 -16 4 8 35 27 36 54 46 54 20z m-1658 -67 c-9 -9 -15 -9
-24 0 -9 9 -7 12 12 12 19 0 21 -3 12 -12z m-385 -314 c-3 -3 -12 -4 -19 -1
-8 3 -5 6 6 6 11 1 17 -2 13 -5z m-4809 -1224 c45 -32 77 -88 67 -119 -6 -20
-173 -121 -201 -121 -13 0 -15 6 -10 31 5 27 1 37 -39 76 -25 24 -45 46 -45
49 0 3 23 30 51 60 47 49 56 54 94 54 31 0 53 -8 83 -30z m1210 -682 c15 -15
16 -38 2 -38 -5 0 -10 7 -10 15 0 8 -4 15 -10 15 -5 0 -10 5 -10 10 0 14 13
13 28 -2z m-278 -543 c0 -14 -4 -25 -10 -25 -11 0 -14 33 -3 43 11 11 13 8 13
-18z m4382 -41 c56 -11 79 -21 83 -34 3 -10 -14 -64 -39 -123 -25 -58 -51
-127 -57 -153 -7 -27 -18 -61 -26 -77 -7 -15 -25 -71 -39 -125 -13 -53 -31
-115 -39 -137 -14 -41 -33 -175 -32 -230 0 -36 -44 -132 -78 -169 -32 -34 -55
-33 -119 8 -78 50 -92 92 -78 229 7 67 21 133 42 192 18 50 37 108 42 130 6
22 23 69 39 105 15 36 49 119 74 185 84 218 90 228 128 220 12 -2 57 -12 99
-21z m925 -10 c-3 -3 -12 -4 -19 -1 -8 3 -5 6 6 6 11 1 17 -2 13 -5z m-4668
-25 c18 -11 58 -29 87 -40 30 -11 54 -26 54 -32 -1 -7 -34 -34 -75 -62 -145
-98 -201 -136 -249 -168 -64 -42 -236 -210 -236 -230 0 -9 9 -22 21 -31 l21
-14 -24 -32 c-42 -59 -109 -120 -129 -120 -28 0 -114 38 -176 77 -43 27 -53
39 -53 61 0 41 73 127 202 236 62 53 142 122 177 154 72 64 121 98 265 186 33
20 65 36 70 36 6 0 26 -9 45 -21z m6304 14 c-24 -2 -62 -2 -85 0 -24 2 -5 4
42 4 47 0 66 -2 43 -4z m-8083 -113 c12 -8 9 -10 -12 -10 -14 0 -28 -4 -30
-10 -2 -6 -8 -6 -18 0 -13 8 -12 10 3 10 9 0 17 5 17 10 0 13 20 13 40 0z
m4974 -24 c29 -12 52 -47 40 -59 -2 -2 -21 -1 -40 2 -40 7 -61 29 -51 55 8 19
9 20 51 2z m-3644 -16 c0 -5 -9 -10 -19 -10 -11 0 -23 -9 -26 -21 -4 -12 -31
-45 -61 -75 -46 -45 -61 -54 -91 -54 -27 0 -34 -3 -29 -15 3 -9 -3 -19 -14
-25 -11 -6 -19 -14 -18 -18 4 -13 -22 -52 -35 -52 -7 0 -18 -9 -25 -20 -7 -11
-18 -20 -26 -20 -8 0 -16 -10 -20 -23 -3 -12 -15 -32 -26 -45 -12 -12 -18 -26
-15 -31 12 -20 -14 -20 -36 0 -13 12 -32 18 -44 15 -11 -2 -89 -8 -172 -12
-152 -7 -153 -7 -153 -30 0 -21 -5 -24 -40 -24 -29 0 -40 4 -40 15 0 14 -22
20 -62 17 -12 -1 -18 5 -18 18 0 11 -4 20 -10 20 -17 0 -11 27 8 36 9 4 129 9
266 11 l249 3 23 25 c13 14 32 25 44 25 11 0 21 7 21 15 1 8 2 20 3 27 0 7 12
18 25 25 14 6 39 28 57 47 18 20 38 36 44 36 6 0 8 5 5 10 -3 6 5 11 19 11 14
1 31 3 36 4 6 1 14 3 19 4 5 0 19 26 32 55 24 58 18 55 112 64 9 1 17 -2 17
-8z m1280 -5 c10 -12 10 -18 0 -30 -10 -12 -10 -15 4 -15 9 0 16 -8 16 -20 0
-28 -25 -25 -38 5 -14 30 -16 75 -3 75 5 0 14 -7 21 -15z m2484 -24 c3 -5 21
-12 41 -15 19 -4 37 -11 40 -15 9 -16 -7 -41 -27 -41 -14 0 -18 -5 -14 -15 17
-46 -44 -186 -71 -163 -19 16 -16 51 7 71 16 14 19 24 13 62 -5 42 -4 45 18
45 l24 1 -23 19 c-12 10 -28 20 -34 22 -6 2 -9 12 -5 21 7 18 23 22 31 8z
m-5969 -11 c4 -6 -6 -10 -22 -10 -22 0 -25 2 -13 10 19 12 27 12 35 0z m3455
-72 c0 -13 -24 -8 -45 8 -20 15 -20 15 0 30 17 13 20 12 32 -8 7 -13 12 -26
13 -30z m156 43 c7 -8 347 -23 502 -23 12 0 22 -4 22 -9 0 -5 -4 -9 -10 -9 -5
0 -10 -6 -10 -14 0 -16 -21 -26 -55 -26 -12 0 -38 -7 -57 -14 -31 -13 -44 -13
-121 3 -89 19 -122 15 -96 -11 28 -28 165 -64 205 -54 13 4 44 1 67 -5 l42
-12 -35 -13 c-19 -7 -54 -13 -78 -13 -47 -1 -82 -15 -96 -39 -6 -11 -10 -11
-16 -2 -10 16 -31 16 -184 1 -70 -7 -140 -11 -155 -8 -19 4 -30 1 -38 -12 -19
-30 -85 -42 -225 -41 -90 1 -155 -4 -200 -14 -70 -17 -98 -12 -140 24 -21 17
-7 30 35 30 18 0 27 5 27 16 0 13 -7 15 -40 9 -21 -4 -64 -1 -94 5 -49 10 -58
9 -80 -7 -42 -30 -33 -46 23 -41 46 5 50 3 56 -20 8 -31 -1 -39 -25 -24 -43
27 -88 6 -48 -22 15 -11 19 -19 12 -26 -7 -7 -16 -4 -29 10 -21 23 -57 26 -75
6 -10 -13 -16 -13 -43 0 -41 20 -84 6 -93 -31 -7 -29 -16 -31 -34 -10 -7 8
-26 15 -42 15 -40 0 -119 73 -100 92 11 11 16 10 26 -5 8 -10 20 -15 30 -11
20 8 20 18 1 34 -37 31 -11 59 111 122 50 26 53 26 95 11 24 -8 70 -16 103
-19 44 -2 63 -8 77 -25 18 -20 24 -21 141 -15 181 8 215 13 240 30 12 9 31 16
40 16 10 0 26 4 36 9 9 6 29 12 45 16 15 3 27 12 27 20 0 15 37 45 57 45 8 0
13 -14 13 -40 0 -33 3 -40 20 -40 16 0 20 7 21 33 1 17 3 24 6 15 3 -13 9 -16
21 -9 19 9 45 9 109 -3 35 -6 45 -4 64 15 19 19 20 23 5 31 -9 5 -38 12 -66
15 -27 3 -50 8 -50 11 0 7 33 41 41 41 3 1 9 -3 15 -8z m-3531 -11 c3 -5 1
-10 -4 -10 -6 0 -11 5 -11 10 0 6 2 10 4 10 3 0 8 -4 11 -10z m5845 -10 c0 -5
-4 -10 -10 -10 -5 0 -10 5 -10 10 0 6 5 10 10 10 6 0 10 -4 10 -10z m-5147
-26 c3 -4 0 -13 -8 -21 -8 -8 -15 -23 -15 -34 0 -16 -7 -19 -40 -19 -22 0 -40
-4 -40 -10 0 -5 5 -10 10 -10 6 0 10 -9 10 -21 0 -28 -43 -23 -48 6 -2 11 -11
26 -20 33 -16 12 -16 14 2 28 11 8 26 14 33 14 7 0 13 9 13 20 0 17 7 20 48
20 27 0 51 -3 55 -6z m572 -4 c3 -5 -3 -10 -14 -10 -12 0 -21 -4 -21 -10 0 -5
-18 -10 -40 -10 -22 0 -40 5 -40 10 0 6 -9 10 -21 10 -11 0 -17 5 -14 10 3 6
37 10 75 10 38 0 72 -4 75 -10z m285 -20 c0 -18 -7 -20 -55 -20 -41 0 -55 4
-55 14 0 17 19 23 73 25 31 1 37 -2 37 -19z m2970 0 c0 -5 -6 -10 -14 -10 -8
0 -17 -10 -19 -22 -3 -17 -5 -14 -6 10 -1 26 3 32 19 32 11 0 20 -4 20 -10z
m130 -40 l0 -30 158 -2 c197 -2 201 -2 235 -12 64 -19 22 -29 -183 -41 -131
-8 -431 10 -441 26 -13 21 0 29 47 29 28 0 44 4 45 13 0 10 2 10 6 0 3 -8 23
-13 49 -13 42 0 44 1 44 30 0 23 4 30 20 30 16 0 20 -7 20 -30z m1766 -9 c1
-24 -2 -31 -12 -27 -8 3 -14 1 -14 -3 0 -5 5 -11 11 -13 9 -3 9 -10 -1 -27 -8
-16 -9 -26 -2 -30 7 -4 7 -12 2 -21 -7 -11 -11 -11 -24 -1 -20 17 -21 80 -1
107 8 12 12 24 9 27 -9 9 7 28 19 24 6 -2 12 -18 13 -36z m-2073 22 c4 -3 0
-15 -10 -25 -15 -17 -15 -18 4 -18 25 0 33 -8 26 -26 -4 -11 -26 -14 -92 -13
-79 1 -83 2 -45 11 26 7 51 22 70 44 30 35 36 38 47 27z m2191 1 c22 -8 20
-24 -3 -24 -10 0 -21 7 -25 15 -6 16 3 19 28 9z m-6024 -24 c0 -11 -7 -20 -15
-20 -27 0 -18 30 13 39 1 1 2 -8 2 -19z m291 3 c16 -3 29 -9 29 -14 0 -5 5 -9
12 -9 16 0 68 -51 68 -67 0 -14 -22 -18 -34 -5 -5 4 -54 7 -109 7 -89 0 -102
2 -105 18 -2 10 3 17 11 17 8 0 18 12 22 27 8 35 23 45 54 38 13 -3 36 -9 52
-12z m5855 8 c-8 -12 39 -23 69 -15 15 4 25 2 25 -5 0 -12 -79 -15 -117 -5
-26 7 -20 34 9 34 10 0 17 -4 14 -9z m198 -1 c14 -5 26 -14 26 -20 0 -13 -87
-13 -95 0 -3 6 3 10 14 10 12 0 21 5 21 10 0 12 2 12 34 0z m-5434 -14 c0 -17
94 -32 128 -22 21 7 62 -11 62 -27 0 -4 -16 -15 -36 -23 -27 -12 -75 -15 -202
-14 -92 0 -186 -2 -208 -6 -31 -5 -48 -2 -68 11 -29 19 -32 30 -13 49 23 23
53 28 180 26 82 0 127 3 127 10 0 5 7 10 15 10 8 0 15 -6 15 -14z m240 -25 c0
-5 -7 -11 -15 -15 -9 -3 -15 0 -15 9 0 8 7 15 15 15 8 0 15 -4 15 -9z m2430
-21 c0 -5 -9 -10 -20 -10 -11 0 -20 5 -20 10 0 6 9 10 20 10 11 0 20 -4 20
-10z m1198 -28 c3 -17 -2 -22 -17 -22 -14 0 -21 6 -21 18 0 38 33 41 38 4z
m-58 8 c0 -5 -7 -10 -15 -10 -8 0 -15 5 -15 10 0 6 7 10 15 10 8 0 15 -4 15
-10z m634 -57 c9 -21 -16 -46 -37 -37 -15 5 -15 8 1 30 20 28 28 30 36 7z
m-6038 -23 c8 0 14 -7 14 -15 0 -8 7 -15 15 -15 8 0 15 -4 15 -9 0 -12 -91
-20 -111 -10 -23 12 -32 41 -17 51 7 5 26 6 42 3 16 -3 35 -5 42 -5z m404 -5
c16 -9 56 -14 113 -15 l87 0 0 -35 c0 -34 -1 -35 -40 -35 -22 0 -40 -4 -40
-10 0 -23 -21 -7 -40 30 -21 40 -40 53 -40 25 0 -11 -11 -15 -40 -15 -36 0
-40 -2 -40 -25 0 -16 -6 -25 -16 -25 -9 0 -23 -9 -32 -20 -14 -17 -32 -22
-104 -26 -56 -3 -88 -1 -88 6 0 5 19 11 43 11 29 1 16 5 -45 13 -48 7 -90 15
-94 18 -11 12 95 58 133 58 27 0 43 6 53 20 8 12 26 20 42 20 15 0 28 5 28 10
0 15 91 11 120 -5z m473 -17 c12 -6 46 -17 76 -23 30 -6 56 -16 59 -23 3 -10
-29 -12 -141 -10 -131 3 -147 1 -166 -16 l-21 -19 0 41 c0 45 4 47 110 55 25
2 49 4 53 5 5 1 18 -3 30 -10z m3982 -50 c13 -11 22 -25 19 -30 -3 -4 4 -8 15
-8 11 0 41 -10 66 -22 37 -18 45 -27 45 -50 0 -26 -3 -28 -39 -28 -22 0 -41 5
-43 11 -4 11 -145 16 -155 5 -3 -3 12 -13 33 -23 22 -10 41 -21 42 -25 2 -5
39 -8 83 -8 64 0 79 3 79 15 0 11 11 15 38 15 21 0 47 7 58 15 21 16 104 21
104 6 0 -5 10 -13 22 -17 19 -6 19 -8 5 -15 -9 -6 -44 -19 -79 -30 -34 -11
-65 -25 -69 -31 -6 -9 -18 -9 -48 1 -61 18 -80 0 -41 -39 21 -21 55 -26 65
-10 3 6 33 10 67 10 62 0 118 22 118 47 0 7 7 13 15 13 8 0 15 4 15 10 0 5 11
12 25 16 14 3 25 13 25 21 0 13 10 15 50 11 81 -8 83 -27 3 -36 -59 -6 -73
-20 -73 -70 l0 -39 83 -16 c45 -9 122 -19 170 -23 77 -6 88 -9 84 -24 -3 -13
0 -16 14 -13 11 3 19 11 19 19 0 17 42 28 75 20 14 -4 25 -13 25 -21 0 -9 10
-15 25 -15 22 0 25 4 25 39 0 22 -4 43 -10 46 -17 10 -11 33 10 40 29 9 61 -4
59 -23 -5 -59 22 -73 40 -21 8 24 7 37 -4 59 -19 36 -19 61 -1 105 30 72 44
29 51 -160 2 -60 4 -119 5 -129 1 -11 12 -32 25 -48 14 -16 25 -33 25 -38 0
-4 8 -10 18 -14 22 -7 79 -41 100 -59 9 -8 25 -17 35 -20 9 -4 17 -11 17 -16
0 -5 14 -12 30 -16 17 -4 30 -11 30 -16 0 -5 11 -9 24 -9 28 0 53 -24 36 -35
-6 -4 -24 -2 -39 4 -21 9 -34 9 -57 0 -19 -8 -112 -13 -274 -16 -135 -1 -312
-6 -395 -10 -82 -5 -185 -7 -227 -5 -76 3 -78 4 -78 29 0 25 -2 25 -47 20
-106 -12 -189 -30 -212 -44 -16 -10 -34 -13 -60 -8 -20 4 -174 7 -343 6 -320
-1 -643 13 -662 28 -11 9 -160 23 -233 22 -24 -1 -43 3 -43 9 0 6 -30 8 -80 6
-94 -5 -103 1 -121 96 -6 32 -16 58 -21 58 -6 0 -32 19 -58 43 -26 24 -75 57
-108 75 -52 28 -64 31 -86 21 -22 -11 -35 -7 -103 27 -105 52 -143 76 -143 92
0 7 4 11 8 8 4 -2 29 0 56 6 43 9 49 8 62 -11 9 -12 19 -21 25 -21 16 0 10 30
-8 38 -18 7 5 11 192 30 50 5 141 16 204 23 113 13 113 13 131 -9 10 -12 25
-22 33 -22 9 0 17 -5 19 -11 6 -18 76 11 109 44 31 30 49 35 49 12 0 -8 6 -15
14 -15 13 0 26 -20 26 -41 0 -5 -10 -9 -22 -9 -21 -1 -20 -2 7 -18 20 -11 53
-17 98 -17 57 0 71 3 83 19 18 25 18 37 0 62 -15 19 -15 19 -30 -1 -14 -18
-15 -18 -16 -2 0 13 -8 17 -34 17 -18 0 -49 7 -67 15 l-34 16 35 -4 c26 -3 38
1 51 17 l17 21 31 -22 c39 -29 49 -29 57 2 8 33 50 52 119 54 31 0 61 3 66 6
4 3 30 -5 56 -18 26 -13 60 -27 76 -31 15 -3 27 -11 27 -16 0 -6 19 -10 43
-11 35 0 38 -2 20 -9 -13 -5 -23 -13 -23 -18 0 -10 -71 -58 -100 -67 -35 -11
-24 -39 22 -56 38 -14 44 -14 76 3 25 12 47 16 78 11 47 -6 60 8 28 32 -14 9
-14 16 -5 33 11 20 20 22 96 22 78 0 85 2 85 20 0 16 7 20 30 20 23 0 30 5 30
19 0 11 6 21 12 23 24 8 -21 40 -60 42 -47 3 -92 16 -92 26 0 9 44 17 125 23
94 8 105 7 130 -15z m2385 -28 c0 -5 -18 -10 -40 -10 -22 0 -40 5 -40 10 0 6
18 10 40 10 22 0 40 -4 40 -10z m-7730 -30 c0 -5 -7 -10 -15 -10 -8 0 -15 5
-15 10 0 6 7 10 15 10 8 0 15 -4 15 -10z m290 0 c0 -5 -4 -10 -10 -10 -5 0
-10 5 -10 10 0 6 5 10 10 10 6 0 10 -4 10 -10z m240 0 c0 -5 -18 -10 -40 -10
-22 0 -40 -4 -40 -10 0 -15 -42 -12 -63 4 -18 14 -18 14 0 19 35 9 143 7 143
-3z m1345 -24 c33 -3 143 -9 244 -12 102 -3 189 -8 194 -11 26 -16 -38 -23
-224 -23 -263 0 -419 9 -419 25 0 14 45 39 57 32 5 -3 24 -2 43 2 19 4 37 4
40 1 3 -4 32 -10 65 -14z m504 -5 c8 -15 7 -20 -5 -25 -26 -10 -34 -7 -34 12
0 35 24 43 39 13z m571 4 c25 -30 14 -65 -36 -116 -54 -54 -86 -62 -125 -30
l-23 19 69 71 c71 72 93 83 115 56z m5155 5 c3 -5 -1 -10 -9 -10 -9 0 -16 5
-16 10 0 6 4 10 9 10 6 0 13 -4 16 -10z m-6455 -30 c0 -6 -33 -10 -80 -10 -47
0 -80 4 -80 10 0 6 33 10 80 10 47 0 80 -4 80 -10z m1435 -52 c35 -16 31 -40
-17 -104 -38 -50 -44 -55 -76 -52 -20 2 -40 11 -46 20 -9 14 -3 25 32 61 23
23 42 47 42 53 0 12 21 34 32 34 4 0 19 -5 33 -12z m276 -28 c23 -18 23 -19 4
-20 -11 0 -33 9 -50 20 l-30 20 26 0 c15 0 37 -9 50 -20z m3635 -14 c8 -8 14
-25 13 -38 0 -13 -3 -18 -5 -11 -3 7 -12 9 -19 7 -8 -3 -28 4 -45 16 -25 18
-28 25 -20 40 9 16 15 18 36 10 14 -6 32 -16 40 -24z m-1166 -6 c0 -5 -4 -10
-10 -10 -5 0 -10 5 -10 10 0 6 5 10 10 10 6 0 10 -4 10 -10z m-3312 -22 c7 -7
12 -20 12 -30 0 -24 -38 -24 -79 0 -36 20 -41 37 -8 29 12 -4 29 -2 37 3 20
13 24 12 38 -2z m-125 -4 c3 -4 2 -15 -4 -26 -10 -19 -11 -19 -24 -1 -10 13
-10 20 -2 25 15 9 22 10 30 2z m846 -8 c9 -8 95 -54 191 -103 152 -77 175 -91
175 -112 0 -18 -9 -27 -45 -42 -25 -10 -64 -18 -88 -18 -77 -1 -351 109 -373
150 -7 15 -6 23 6 35 8 9 29 35 46 60 32 47 59 56 88 30z m4309 2 c35 1 42 -2
42 -18 0 -15 -7 -20 -25 -20 -28 0 -32 -12 -10 -34 14 -14 21 -46 10 -46 -3 0
-18 11 -33 25 -15 14 -36 25 -48 25 -12 0 -27 7 -34 15 -7 8 -23 15 -35 15
-21 0 -22 2 -12 26 11 24 15 25 57 18 25 -4 64 -7 88 -6z m902 -2 c0 -14 -70
-36 -112 -36 -45 0 -48 -2 -48 -25 0 -22 4 -25 40 -25 29 0 40 -4 40 -15 0
-17 65 -22 75 -5 7 12 178 12 248 1 28 -5 56 -17 68 -29 20 -22 65 -39 76 -29
3 3 14 -3 26 -14 18 -17 44 -24 70 -20 4 1 21 -6 37 -14 16 -8 51 -16 77 -16
l48 -2 -55 -7 c-30 -4 -72 -15 -94 -24 -42 -19 -126 -18 -281 3 -46 7 -134 9
-205 5 -104 -5 -128 -9 -146 -25 -26 -24 -36 -24 -52 1 -7 11 -19 20 -27 20
-16 0 -39 36 -31 48 9 15 -13 36 -36 37 -14 0 -23 6 -23 15 0 8 -4 21 -8 28
-8 11 19 17 71 15 6 -1 12 10 12 22 0 13 3 30 6 38 10 27 -25 27 -57 -1 -22
-18 -34 -23 -37 -14 -2 6 -8 12 -14 12 -5 0 -17 7 -25 16 -15 14 -17 14 -26
-1 -6 -11 -4 -22 7 -34 18 -20 21 -36 6 -26 -15 9 -48 16 -130 26 -69 8 -108
14 -120 19 -3 1 9 5 25 9 17 4 33 2 38 -4 5 -5 5 0 2 13 -7 25 -6 25 90 23 33
-1 66 3 74 8 14 9 391 15 391 7z m412 -24 c8 -8 8 -15 -2 -27 -13 -15 -61 -21
-74 -8 -4 4 -16 8 -28 8 -14 0 -22 8 -25 24 -3 23 -2 23 57 19 33 -2 65 -9 72
-16z m611 -19 c-13 -2 -33 -2 -45 0 -13 2 -3 4 22 4 25 0 35 -2 23 -4z m-2260
-29 c35 -5 47 -11 47 -24 0 -15 -9 -17 -58 -16 -59 1 -92 16 -92 41 0 13 7 13
103 -1z m-259 -35 c14 -11 26 -26 26 -32 0 -7 -15 -43 -34 -82 -19 -38 -37
-78 -41 -89 -4 -16 -12 -17 -47 -12 -23 4 -48 12 -55 18 -15 12 -18 54 -4 60
11 4 57 78 66 108 17 55 45 64 89 29z m2999 -36 c-13 -2 -33 -2 -45 0 -13 2
-3 4 22 4 25 0 35 -2 23 -4z m-2308 -22 c-3 -6 -14 -11 -23 -11 -9 0 -25 -14
-34 -31 -16 -28 -21 -29 -55 -23 -42 7 -63 20 -63 39 0 16 35 25 69 19 14 -2
44 2 66 10 42 15 51 14 40 -3z m-559 -9 c6 -4 17 -17 23 -30 11 -20 9 -29 -11
-60 -39 -61 -48 -76 -58 -99 -10 -25 -30 -29 -61 -13 -28 15 -24 41 16 100 20
30 35 64 35 81 0 23 4 29 23 29 12 0 27 -4 33 -8z m2084 -37 c0 -8 -7 -15 -15
-15 -8 0 -15 7 -15 15 0 8 7 15 15 15 8 0 15 -7 15 -15z m-1803 -67 c76 -28
172 -57 213 -64 41 -6 96 -21 121 -32 38 -16 47 -26 53 -52 7 -38 -13 -86 -55
-132 -28 -29 -31 -30 -89 -24 -33 4 -79 14 -101 22 -23 7 -51 14 -63 14 -12 0
-66 16 -121 36 -55 19 -115 40 -134 46 -37 11 -81 36 -93 53 -14 18 -8 36 17
60 15 13 29 39 32 59 6 38 34 66 65 66 10 0 80 -23 155 -52z m925 -65 c8 -17
26 -31 46 -37 25 -7 32 -14 32 -34 0 -18 -3 -22 -12 -15 -7 6 -29 15 -48 22
-40 13 -64 43 -55 72 9 27 22 24 37 -8z m1498 -10 c25 -3 50 -10 57 -15 6 -5
38 -12 70 -15 123 -12 88 -31 -44 -24 -38 2 -57 -2 -69 -13 -19 -20 -153 -23
-172 -4 -8 8 -49 11 -131 9 -76 -1 -121 2 -126 8 -3 7 2 11 14 11 12 0 21 5
21 10 0 6 29 10 68 10 68 0 218 23 230 34 3 4 13 4 21 1 8 -3 36 -9 61 -12z
m-620 -14 c0 -7 18 -10 48 -8 46 2 112 -9 112 -19 0 -2 -10 -13 -22 -24 -18
-15 -35 -18 -83 -16 -38 2 -60 7 -60 15 0 7 -9 19 -20 27 -12 9 -15 15 -7 16
7 0 10 5 7 10 -3 6 1 10 9 10 9 0 16 -5 16 -11z m-6393 -55 c48 -28 67 -56 58
-85 -14 -43 -80 -42 -167 2 -37 19 -68 53 -68 76 0 7 12 19 28 28 35 20 94 12
149 -21z m5753 17 c0 -16 -6 -18 -37 -14 -34 4 -40 1 -56 -27 -17 -32 -40 -36
-45 -7 -2 9 9 22 27 32 17 8 31 20 31 25 0 6 18 10 40 10 33 0 40 -3 40 -19z
m1603 12 c-7 -2 -21 -2 -30 0 -10 3 -4 5 12 5 17 0 24 -2 18 -5z m-1063 -34
c8 -4 29 -11 45 -15 l30 -7 -27 -10 c-16 -6 -28 -14 -28 -19 0 -11 -50 -10
-110 3 -49 10 -68 28 -32 30 14 1 14 2 -2 6 -18 5 -18 6 5 19 24 14 86 10 119
-7z m-255 1 c10 -17 -15 -40 -42 -40 -26 0 -83 29 -83 42 0 12 118 10 125 -2z
m-4834 -175 c24 -9 66 -18 94 -20 27 -3 104 -9 170 -15 66 -6 150 -15 188 -20
37 -6 89 -10 116 -10 27 0 68 -7 91 -15 56 -20 377 -20 505 -1 116 18 1142 21
1570 5 165 -6 390 -13 500 -15 l200 -4 15 -32 c8 -18 24 -55 37 -82 12 -27 20
-52 18 -57 -3 -4 -26 -19 -51 -33 -44 -25 -56 -26 -218 -29 -182 -4 -301 -26
-346 -64 -59 -49 -120 -117 -120 -134 0 -11 -4 -27 -9 -37 -5 -9 -15 -39 -23
-67 -13 -47 -16 -50 -58 -60 -25 -5 -104 -8 -177 -7 -72 2 -149 -1 -170 -7
-21 -6 -119 -11 -218 -12 -125 -1 -188 -6 -206 -15 -14 -7 -90 -18 -170 -24
-170 -13 -332 -35 -359 -50 -10 -5 -54 -10 -97 -11 -43 0 -121 -7 -173 -15
-52 -9 -167 -19 -255 -24 -88 -4 -182 -13 -210 -19 -59 -14 -667 -13 -704 0
-66 25 -230 40 -485 45 -149 2 -284 7 -299 10 -15 3 -34 1 -41 -5 -18 -16 -82
-16 -321 -1 -224 14 -420 14 -447 -1 -9 -5 -60 -14 -115 -20 -54 -5 -116 -15
-138 -20 -183 -47 -1074 -92 -1257 -65 -89 14 -79 25 52 56 52 12 122 35 155
50 33 15 137 54 230 86 l170 57 515 -1 c283 0 634 -4 780 -7 147 -4 377 -2
515 4 138 6 399 13 580 15 182 3 337 7 346 11 18 7 62 11 214 21 61 3 141 15
180 25 47 13 103 19 175 19 58 0 131 4 162 10 32 5 178 10 325 11 148 1 273 6
278 9 16 11 101 30 137 30 18 0 44 3 56 7 36 9 6 23 -53 23 -27 1 -72 7 -100
14 -36 9 -56 10 -73 3 -16 -7 -29 -7 -46 3 -15 8 -39 10 -63 6 -69 -11 -427
-27 -473 -21 -57 8 -42 8 -255 -4 -99 -6 -218 -18 -265 -26 -143 -25 -401 -47
-475 -40 -38 3 -104 1 -144 -5 -101 -14 -739 -14 -793 0 -49 14 -75 35 -53 44
8 3 15 12 15 21 0 8 6 15 13 15 18 0 67 24 67 33 0 4 5 7 12 7 6 0 53 20 103
45 l92 45 139 2 c76 2 200 -1 274 -5 74 -4 160 -9 190 -10 41 -2 55 -6 55 -17
0 -9 11 -16 28 -18 23 -3 27 0 27 22 0 28 7 30 60 17 19 -5 121 -12 225 -16
105 -3 208 -10 231 -15 71 -16 608 -11 635 6 6 4 92 6 190 6 150 0 181 -2 194
-16 23 -22 39 -20 73 9 31 26 31 26 244 26 118 0 221 5 229 10 12 7 12 12 -2
36 -9 16 -22 26 -30 24 -69 -18 -101 -19 -240 -10 -149 10 -158 9 -194 -10
-33 -17 -60 -20 -219 -23 -354 -5 -459 -2 -493 16 -25 12 -38 14 -60 5 -38
-14 -288 -15 -458 0 -77 6 -178 11 -226 11 -49 -1 -102 5 -125 13 -22 7 -56
12 -76 9 -62 -7 -59 21 7 57 22 12 49 27 60 34 11 6 22 13 24 14 2 1 -4 9 -13
18 -9 9 -16 27 -16 39 0 13 -3 51 -6 85 -8 68 -7 68 57 46z m-171 -285 c0 -5
-4 -10 -10 -10 -5 0 -10 5 -10 10 0 6 5 10 10 10 6 0 10 -4 10 -10z m-1363
-116 c23 -13 45 -29 48 -35 10 -16 49 -28 112 -35 32 -3 65 -10 75 -15 9 -5
26 -9 37 -9 22 0 26 -8 13 -25 -4 -6 -82 -11 -199 -12 -114 -1 -200 -6 -212
-12 -11 -6 -44 -11 -73 -11 -29 0 -82 -5 -118 -10 -106 -16 -219 -22 -235 -12
-27 14 15 41 106 68 45 13 90 31 99 39 9 8 42 24 73 34 32 11 63 24 70 28 25
16 123 41 142 36 11 -3 39 -16 62 -29z m4788 -104 c39 -15 42 -37 9 -71 -25
-26 -34 -29 -93 -29 -53 0 -69 4 -88 22 -32 30 -30 64 5 76 36 14 134 15 167
2z m-530 -278 c26 -19 56 -76 62 -117 3 -25 8 -44 10 -41 10 10 62 -21 88 -52
35 -42 28 -64 -17 -51 -20 5 -44 5 -63 0 -16 -5 -65 -12 -108 -16 -43 -3 -89
-10 -102 -15 -24 -9 -224 -17 -585 -25 -96 -2 -189 -8 -206 -13 -17 -5 -80
-15 -140 -21 -60 -6 -140 -17 -179 -23 -38 -7 -131 -12 -205 -13 -74 0 -171
-6 -215 -14 -46 -7 -106 -10 -141 -7 -43 4 -74 2 -105 -9 -61 -22 -218 -37
-384 -37 -77 1 -158 -3 -180 -8 -58 -13 -964 -43 -1235 -42 -19 0 -120 -4
-225 -9 -104 -5 -300 -11 -435 -14 -135 -3 -353 -10 -485 -16 -180 -9 -291 -8
-445 1 -122 7 -306 9 -455 6 -175 -4 -261 -3 -285 5 -29 10 -651 20 -1097 18
-33 0 -64 5 -68 10 -3 6 0 11 8 11 8 0 69 18 136 40 68 22 132 41 144 43 12 1
42 10 67 19 25 9 79 23 120 31 41 8 93 20 115 25 169 44 316 54 517 37 89 -7
139 -3 125 11 -9 9 -239 42 -257 37 -8 -2 2 6 24 17 30 17 48 20 80 15 22 -3
128 -9 234 -11 123 -4 192 -9 192 -16 0 -7 34 -8 103 -4 56 4 184 9 285 11
101 2 224 11 275 19 51 8 144 20 207 26 63 6 142 18 174 26 119 31 578 45 919
29 80 -3 118 -1 150 10 82 29 403 18 732 -25 149 -20 686 -11 745 12 14 6 91
10 173 9 120 -1 152 2 172 15 19 13 50 16 154 15 71 -1 149 3 173 8 65 15 266
31 423 35 85 3 167 11 210 21 58 14 105 16 267 13 138 -4 198 -2 201 6 2 7 52
11 145 12 78 0 145 4 149 7 8 9 25 9 38 -1z m-7892 -273 c43 -11 48 -31 12
-47 -35 -16 -71 -15 -159 4 -55 12 -76 22 -79 35 -3 10 -3 19 -2 21 7 7 192
-4 228 -13z m6660 -216 c-7 -2 -19 -2 -25 0 -7 3 -2 5 12 5 14 0 19 -2 13 -5z"/>
<path d="M11235 6036 c-63 -30 -145 -117 -181 -193 -21 -44 -28 -77 -32 -138
-4 -76 -3 -81 21 -104 47 -44 72 -8 45 66 -29 79 73 256 182 314 35 19 45 30
45 49 0 33 -20 35 -80 6z"/>
<path d="M1205 7199 c-33 -4 -76 -13 -95 -19 -128 -47 -253 -205 -266 -339 -7
-62 9 -172 32 -229 42 -104 183 -181 333 -182 170 0 335 122 402 299 29 77 24
206 -9 271 -73 141 -230 219 -397 199z m135 -73 c83 -17 115 -34 164 -87 56
-60 72 -140 52 -256 -12 -71 -21 -93 -55 -138 -51 -67 -92 -98 -169 -130 -93
-38 -173 -35 -268 10 -65 30 -78 41 -113 94 -80 124 -61 286 46 406 54 60 107
94 148 95 17 1 39 5 50 10 30 13 72 12 145 -4z"/>
<path d="M1107 6976 c-50 -18 -71 -38 -107 -102 -44 -75 -42 -131 6 -184 20
-22 45 -40 56 -40 10 0 32 -7 48 -15 28 -14 33 -14 78 9 70 35 107 70 132 121
19 39 20 49 9 82 -40 122 -116 166 -222 129z"/>
<path d="M5841 2486 c-19 -11 -21 -14 -7 -19 18 -7 46 1 46 13 0 16 -15 18
-39 6z"/>
<path d="M5126 2471 c-3 -5 0 -11 8 -14 15 -6 26 1 26 15 0 11 -27 10 -34 -1z"/>
<path d="M2878 2423 c7 -3 16 -2 19 1 4 3 -2 6 -13 5 -11 0 -14 -3 -6 -6z"/>
<path d="M5998 2203 c7 -3 16 -2 19 1 4 3 -2 6 -13 5 -11 0 -14 -3 -6 -6z"/>
<path d="M5700 2170 c0 -5 18 -10 39 -10 22 0 43 5 46 10 4 6 -12 10 -39 10
-25 0 -46 -4 -46 -10z"/>
<path d="M7201 2154 c-87 -13 -113 -26 -94 -45 19 -19 90 -22 140 -6 26 8 60
18 76 21 36 8 34 21 -4 35 -18 6 -32 10 -33 10 -1 -1 -39 -8 -85 -15z"/>
<path d="M5670 2090 c0 -5 5 -10 11 -10 5 0 7 5 4 10 -3 6 -8 10 -11 10 -2 0
-4 -4 -4 -10z"/>
<path d="M8321 1956 c-7 -9 -24 -16 -37 -16 -13 0 -24 -4 -24 -10 0 -6 -26
-10 -59 -10 -33 0 -72 -5 -88 -11 -30 -12 -84 -15 -420 -25 -130 -3 -213 -10
-213 -16 0 -5 18 -27 40 -48 35 -34 45 -38 102 -42 35 -2 84 -2 111 0 l47 4 0
39 c0 21 5 39 10 39 6 0 10 -17 10 -38 l0 -38 58 -12 c90 -19 263 -34 309 -27
46 7 74 29 48 39 -41 15 0 52 47 41 35 -8 50 8 56 61 2 27 9 52 15 55 5 4 8
12 5 19 -3 9 -8 8 -17 -4z"/>
<path d="M8420 1931 c0 -6 -18 -11 -40 -11 -38 0 -40 -2 -40 -30 0 -28 2 -30
40 -30 l40 0 0 -45 0 -45 39 0 c22 0 41 -5 43 -11 6 -18 77 23 78 45 0 11 -3
16 -6 13 -9 -9 -44 11 -44 26 0 14 -27 39 -58 56 -11 6 -28 18 -36 27 -9 8
-16 11 -16 5z"/>
<path d="M7220 1896 c-119 -42 -160 -60 -160 -72 0 -13 67 -24 144 -24 29 0
56 -4 62 -9 12 -10 91 -29 127 -29 23 0 27 4 27 27 0 15 -8 31 -20 39 -27 17
-25 32 4 32 78 0 73 33 -8 48 -84 16 -100 15 -176 -12z"/>
<path d="M6580 1870 c0 -6 -16 -10 -35 -10 -39 0 -85 -33 -85 -61 0 -31 60
-40 98 -13 12 8 22 10 22 5 0 -6 11 -11 25 -11 22 0 25 4 25 38 0 32 -5 41
-25 50 -15 7 -25 8 -25 2z"/>
<path d="M6766 1851 c-4 -5 0 -11 6 -14 7 -2 -1 -11 -19 -20 -17 -9 -34 -21
-38 -27 -10 -16 30 -47 69 -53 48 -8 146 10 169 31 15 13 20 14 26 3 6 -9 11
-10 15 -2 4 6 2 11 -3 11 -6 0 -11 6 -11 13 0 16 -67 50 -81 41 -5 -3 -21 1
-34 10 -26 17 -90 22 -99 7z"/>
<path d="M6066 1833 c-12 -12 -5 -23 14 -23 11 0 20 4 20 9 0 11 -26 22 -34
14z"/>
<path d="M8331 1793 c-1 -8 -15 -13 -36 -13 -19 0 -35 -4 -35 -9 0 -10 87 -20
108 -13 19 7 14 22 -7 22 -11 0 -22 6 -24 13 -4 10 -6 10 -6 0z"/>
<path d="M10334 2027 c4 -14 1 -16 -18 -11 -19 4 -26 1 -31 -16 -9 -27 12 -52
36 -45 11 4 19 1 19 -6 0 -8 18 -10 68 -5 60 6 131 -1 172 -17 21 -9 49 15 52
44 3 23 1 24 -64 20 -40 -1 -68 1 -68 7 0 5 -35 13 -77 17 -43 4 -82 12 -86
19 -6 7 -7 4 -3 -7z"/>
<path d="M8957 1285 c6 -17 25 -15 31 3 2 7 -5 12 -17 12 -14 0 -19 -5 -14
-15z"/>
<path d="M8650 1150 c-11 -7 -7 -10 18 -10 17 0 32 5 32 10 0 13 -30 13 -50 0z"/>
<path d="M7780 1020 c0 -5 7 -10 15 -10 8 0 15 5 15 10 0 6 -7 10 -15 10 -8 0
-15 -4 -15 -10z"/>
<path d="M8180 936 c0 -18 6 -19 35 -6 11 5 15 9 8 9 -6 1 -18 4 -27 7 -11 4
-16 1 -16 -10z"/>
<path d="M3563 760 c-42 -9 -123 -49 -123 -62 0 -12 167 10 176 24 3 5 25 9
48 8 67 -3 75 2 16 10 -30 5 -56 13 -58 19 -2 6 -7 11 -10 10 -4 -1 -26 -5
-49 -9z"/>
<path d="M3805 750 c-10 -16 4 -30 31 -30 29 0 31 15 5 30 -24 12 -28 13 -36
0z"/>
<path d="M8405 690 c3 -5 8 -10 11 -10 2 0 4 5 4 10 0 6 -5 10 -11 10 -5 0 -7
-4 -4 -10z"/>
<path d="M8513 693 c9 -2 23 -2 30 0 6 3 -1 5 -18 5 -16 0 -22 -2 -12 -5z"/>
<path d="M2945 473 c-33 -9 -45 -24 -45 -59 0 -52 35 -72 182 -104 84 -19 92
-19 156 -4 37 9 73 24 79 32 15 18 11 85 -6 106 -16 19 -81 30 -94 17 -8 -8
-6 -11 6 -11 14 0 37 -27 37 -44 0 -3 -19 -10 -42 -17 -58 -15 -114 2 -153 47
-31 35 -76 49 -120 37z"/>
<path d="M594 8065 c-18 -13 -17 -14 19 -15 25 0 40 -5 44 -16 7 -19 47 -64
57 -64 4 0 6 15 4 32 -2 26 -11 37 -43 55 -47 27 -55 28 -81 8z"/>
<path d="M770 7970 c0 -11 -4 -20 -9 -20 -5 0 -6 -12 -2 -27 8 -30 35 -40 61
-24 13 9 11 13 -8 31 -12 11 -22 30 -22 40 0 11 -4 20 -10 20 -5 0 -10 -9 -10
-20z"/>
<path d="M5452 7968 c-17 -17 -16 -26 19 -133 41 -128 38 -145 -26 -163 -97
-27 -201 -65 -245 -89 -25 -13 -66 -27 -91 -30 -43 -5 -47 -4 -53 20 -3 14
-18 40 -33 58 -16 18 -39 53 -53 78 -20 37 -31 47 -56 49 -16 2 -42 -2 -57 -7
-52 -20 -33 -78 74 -233 33 -47 25 -68 -47 -128 -153 -128 -254 -362 -254
-589 0 -86 23 -231 41 -265 6 -10 20 -35 31 -55 62 -112 207 -250 313 -300
193 -90 277 -106 545 -106 233 0 347 14 489 61 40 13 77 24 82 24 8 0 182 84
229 111 31 17 170 128 188 149 75 88 159 251 181 350 33 143 -5 382 -80 508
-44 76 -162 211 -212 244 -56 37 -219 117 -278 137 -62 20 -72 39 -58 108 7
32 14 83 16 113 4 51 2 57 -19 69 -14 7 -40 11 -59 9 -34 -3 -34 -4 -56 -83
-12 -44 -22 -92 -22 -107 -2 -50 -19 -56 -156 -57 -158 -1 -179 7 -190 76 -7
46 -24 106 -47 166 -9 24 -15 27 -57 27 -26 0 -52 -5 -59 -12z m595 -344 c114
-26 262 -92 355 -157 184 -128 303 -434 257 -659 -50 -246 -200 -417 -471
-539 -159 -71 -240 -94 -413 -115 -199 -25 -415 -15 -564 25 -143 39 -207 73
-312 167 -163 144 -215 284 -198 529 8 109 26 169 85 290 115 234 499 441 878
475 118 11 302 3 383 -16z"/>
<path d="M6040 7160 c-91 -20 -215 -96 -260 -160 -68 -95 -93 -265 -52 -346
78 -152 221 -233 392 -221 148 10 258 88 330 233 29 56 30 66 26 146 -6 118
-20 162 -67 213 -57 61 -104 91 -192 120 -79 26 -115 29 -177 15z m123 -60
c109 -16 201 -82 228 -165 21 -65 13 -208 -16 -269 -61 -130 -212 -201 -360
-170 -88 18 -180 86 -221 164 -40 76 -15 256 43 312 13 13 35 33 47 46 26 24
106 70 146 82 34 11 54 11 133 0z"/>
<path d="M5994 6921 c-21 -15 -48 -45 -58 -65 -18 -33 -18 -42 -8 -83 25 -92
99 -153 186 -153 74 0 101 19 135 94 27 62 27 76 -5 138 -43 85 -62 98 -142
98 -60 0 -74 -4 -108 -29z"/>
<path d="M8840 7359 c0 -12 41 -59 52 -59 3 0 4 9 1 20 -6 22 -53 57 -53 39z"/>
<path d="M8295 7330 c-3 -5 -15 -10 -27 -10 -27 0 -102 -75 -94 -95 3 -8 1
-15 -4 -15 -5 0 -12 -10 -16 -22 -3 -13 -12 -30 -19 -38 -30 -36 -48 -197 -28
-254 7 -21 13 -49 13 -62 0 -16 10 -28 30 -39 16 -8 32 -15 35 -15 3 -1 11 -3
20 -6 53 -21 215 128 215 198 0 11 5 29 12 41 7 13 11 59 10 109 -1 72 -5 95
-25 130 -34 61 -104 106 -122 78z m-15 -120 c0 -5 -4 -10 -10 -10 -5 0 -10 5
-10 10 0 6 5 10 10 10 6 0 10 -4 10 -10z"/>
<path d="M11858 7290 c-1 -5 -40 -11 -84 -13 -45 -1 -80 -5 -77 -9 2 -5 -5 -8
-16 -8 -10 0 -21 5 -23 12 -3 9 -16 8 -52 -2 -35 -10 -50 -10 -59 -1 -7 7 -48
11 -107 11 -83 0 -98 -3 -113 -20 -9 -11 -25 -20 -36 -20 -24 0 -45 -25 -37
-46 7 -19 51 -12 79 13 11 11 35 16 75 15 31 0 132 -2 224 -4 161 -3 167 -2
190 20 14 12 29 22 34 22 11 0 44 -36 44 -49 0 -5 9 -11 20 -14 11 -3 20 -2
20 3 0 19 122 33 218 25 53 -5 168 -9 254 -9 l158 -1 0 38 0 38 -317 -3 c-175
-2 -334 1 -355 5 -23 5 -37 4 -40 -3z"/>
<path d="M8987 7233 c-4 -3 -7 -16 -7 -28 0 -17 9 -25 41 -34 52 -16 93 -6
119 27 19 24 20 26 4 35 -11 7 -23 6 -36 -2 -13 -8 -24 -8 -38 -1 -21 11 -73
13 -83 3z"/>
<path d="M12230 7181 c-8 -6 -12 -13 -8 -16 3 -3 75 -13 159 -21 85 -8 162
-19 172 -24 14 -9 17 -6 17 19 0 26 -4 31 -32 35 -71 11 -294 16 -308 7z"/>
<path d="M8913 7158 c-4 -7 -9 -41 -10 -75 -3 -61 -2 -63 22 -63 21 0 25 5 25
29 0 20 8 34 25 45 22 15 24 19 11 31 -8 8 -19 15 -24 15 -6 0 -12 7 -16 15
-7 18 -22 19 -33 3z"/>
<path d="M11548 7143 c6 -2 10 -9 6 -14 -3 -5 12 -9 33 -9 l38 0 -29 15 c-15
8 -36 15 -45 14 -10 0 -11 -2 -3 -6z"/>
<path d="M9045 7110 c3 -5 8 -10 11 -10 2 0 4 5 4 10 0 6 -5 10 -11 10 -5 0
-7 -4 -4 -10z"/>
<path d="M6590 6119 c-37 -33 -219 -128 -285 -148 -22 -7 -55 -19 -73 -28
-117 -52 -315 -86 -512 -87 -155 -1 -173 1 -295 32 -149 37 -226 70 -272 114
-36 34 -63 32 -63 -5 0 -72 210 -161 477 -200 181 -27 521 14 693 84 69 28
202 90 276 128 32 16 76 47 123 87 16 13 22 27 18 37 -10 26 -49 20 -87 -14z"/>
<path d="M7200 5985 c-17 -21 -8 -50 17 -53 24 -4 60 39 48 58 -9 15 -51 12
-65 -5z"/>
<path d="M6755 5860 c-6 -20 10 -60 25 -60 23 0 40 14 40 34 0 43 -53 65 -65
26z"/>
<path d="M1502 5801 c2 -7 7 -12 11 -12 12 1 9 15 -3 20 -7 2 -11 -2 -8 -8z"/>
<path d="M7042 5687 l-22 -23 27 -22 c33 -27 64 -28 86 -4 21 23 21 36 1 56
-23 23 -67 20 -92 -7z"/>
<path d="M9813 5680 c2 -30 37 -39 57 -15 11 13 8 15 -18 15 -17 0 -33 6 -36
13 -3 6 -4 1 -3 -13z"/>
<path d="M10020 5677 c0 -9 11 -24 24 -34 21 -17 23 -26 21 -84 -4 -76 7 -135
23 -131 7 1 12 -7 12 -18 0 -11 -3 -19 -7 -17 -5 1 -8 0 -8 -3 0 -3 -10 -21
-23 -41 -26 -42 -28 -53 -8 -46 11 5 13 0 6 -22 -4 -16 -13 -38 -20 -50 -6
-12 -10 -40 -9 -61 2 -22 0 -42 -4 -46 -22 -22 19 -147 65 -196 15 -16 28 -32
28 -34 0 -2 13 -32 30 -66 16 -34 28 -64 25 -66 -3 -3 -5 1 -6 9 -1 8 -5 -2
-10 -21 -9 -38 -3 -90 12 -90 5 0 9 -9 9 -20 0 -24 13 -26 34 -4 14 13 14 18
1 37 -9 14 -14 49 -13 99 0 73 -2 78 -39 130 -22 29 -45 69 -53 88 -7 19 -17
39 -22 44 -4 6 -8 28 -8 51 0 23 -4 45 -10 51 -10 10 7 73 24 85 5 4 7 27 4
53 -4 28 0 55 8 72 8 14 14 34 14 43 0 9 5 22 12 29 9 9 6 18 -15 40 -19 20
-27 39 -27 65 0 20 5 37 10 37 17 0 10 74 -9 97 -24 28 -71 42 -71 20z"/>
<path d="M9455 5326 c-35 -15 -90 -74 -101 -108 -4 -13 -13 -27 -19 -33 -7 -5
-15 -23 -18 -40 -4 -16 -10 -52 -16 -80 -5 -27 -7 -69 -4 -92 5 -35 12 -46 43
-67 49 -32 97 -41 137 -24 35 15 123 120 123 147 0 9 2 59 5 111 2 52 2 103
-1 113 -6 19 -91 87 -108 87 -6 -1 -25 -7 -41 -14z m65 -71 c0 -8 -6 -15 -14
-15 -17 0 -28 14 -19 24 12 12 33 6 33 -9z m30 -203 c0 -15 -2 -15 -10 -2 -13
20 -13 33 0 25 6 -3 10 -14 10 -23z m-130 -22 c13 -9 13 -11 0 -20 -24 -16
-40 -12 -40 10 0 22 16 26 40 10z m60 -24 c0 -8 -4 -18 -10 -21 -5 -3 -10 3
-10 14 0 12 5 21 10 21 6 0 10 -6 10 -14z m4 -50 c-3 -9 -10 -16 -15 -16 -5 0
-4 9 3 20 14 22 21 20 12 -4z"/>
<path d="M8072 5088 c-7 -7 -12 -23 -12 -37 0 -13 2 -22 5 -19 3 3 23 -11 44
-31 59 -55 68 -61 96 -61 15 0 23 -4 20 -10 -8 -14 56 -51 78 -46 11 3 33 -4
51 -13 18 -10 46 -22 62 -25 16 -4 51 -27 78 -51 27 -25 55 -45 61 -45 7 0 16
-11 19 -25 3 -13 22 -41 42 -60 19 -20 37 -46 40 -58 10 -51 26 -165 29 -212
2 -27 8 -51 14 -53 6 -2 11 -12 11 -23 0 -37 18 -19 28 28 7 31 7 50 1 54 -6
3 -9 10 -8 15 1 5 -1 17 -6 27 -4 11 -3 23 4 30 16 16 13 39 -9 67 -11 14 -20
34 -20 45 0 11 -9 31 -20 45 -11 14 -20 31 -20 38 0 6 -4 12 -9 12 -5 0 -13 9
-16 20 -3 11 -13 20 -21 20 -8 0 -14 7 -14 16 0 25 -69 92 -125 120 -27 14
-52 29 -55 32 -6 8 -71 32 -88 32 -6 0 -23 5 -39 12 -15 6 -33 10 -39 10 -6
-1 -16 9 -22 23 -7 15 -20 25 -32 25 -11 0 -27 11 -36 25 -9 14 -25 25 -35 25
-11 0 -19 4 -19 10 0 5 -7 7 -15 4 -17 -7 -21 11 -5 21 12 7 13 25 2 25 -4 0
-13 -5 -20 -12z"/>
<path d="M10119 4555 c-5 -32 -6 -183 -2 -197 2 -10 11 -18 19 -18 16 0 19
-16 4 -25 -5 -3 -10 -21 -10 -40 0 -19 5 -37 10 -40 6 -3 10 -17 10 -31 0 -37
15 -29 26 14 7 28 5 50 -9 90 -14 42 -16 65 -9 105 6 42 8 107 3 147 -2 10
-41 6 -42 -5z"/>
<path d="M8746 4267 c-2 -11 2 -26 10 -34 8 -8 14 -27 14 -42 0 -28 35 -71 58
-71 7 0 12 -4 12 -10 0 -5 9 -10 19 -10 11 0 22 -4 25 -9 8 -12 120 -33 142
-25 10 3 28 10 39 14 87 37 142 48 189 39 26 -5 52 -7 56 -4 5 3 11 -14 15
-37 4 -24 16 -55 26 -69 15 -22 25 -55 28 -95 1 -18 32 -26 47 -13 18 15 18
53 -1 69 -8 7 -17 28 -21 49 -3 20 -16 57 -28 83 -20 45 -22 47 -57 41 -27 -4
-38 -1 -42 11 -7 18 -39 21 -68 5 -11 -6 -41 -14 -67 -19 -26 -5 -79 -17 -119
-26 l-71 -17 -34 26 c-18 14 -41 33 -50 42 -10 8 -24 15 -31 15 -23 0 -37 23
-37 61 0 31 -4 37 -24 41 -18 4 -26 0 -30 -15z"/>
<path d="M10163 4107 c4 -36 13 -66 26 -83 28 -36 55 -122 43 -137 -9 -11 -22
-77 -16 -77 2 0 17 29 34 64 29 58 31 68 21 99 -6 18 -20 43 -31 55 -11 12
-25 44 -31 72 -10 46 -29 78 -29 48 0 -10 -3 -9 -11 2 -8 11 -9 0 -6 -43z"/>
<path d="M9865 3886 c-56 -25 -100 -38 -150 -46 -88 -12 -180 -34 -187 -44
-19 -28 59 -49 81 -22 11 13 50 24 110 32 13 1 28 7 34 13 6 6 29 11 52 11 23
0 45 4 51 9 5 5 36 11 69 13 l60 3 27 -50 c15 -27 28 -44 28 -37 0 6 6 12 14
12 23 0 30 38 11 66 -20 31 -43 40 -58 25 -15 -15 -27 -14 -27 4 0 8 -6 15
-14 15 -7 0 -26 2 -42 5 -16 2 -42 -2 -59 -9z"/>
<path d="M9450 3824 c0 -14 27 -44 40 -44 10 0 22 29 15 40 -9 14 -55 18 -55
4z"/>
<path d="M4620 3670 c0 -5 9 -10 20 -10 11 0 20 -7 20 -15 0 -8 9 -15 20 -15
23 0 24 4 10 31 -11 20 -70 28 -70 9z"/>
<path d="M9759 3678 c-10 -35 -7 -38 24 -22 44 23 45 24 9 24 -18 0 -32 -1
-33 -2z"/>
<path d="M9480 3580 c0 -5 5 -10 10 -10 6 0 10 5 10 10 0 6 -4 10 -10 10 -5 0
-10 -4 -10 -10z"/>
<path d="M9308 3543 c7 -3 16 -2 19 1 4 3 -2 6 -13 5 -11 0 -14 -3 -6 -6z"/>
<path d="M5090 3521 c0 -6 5 -13 10 -16 6 -3 10 1 10 9 0 9 -4 16 -10 16 -5 0
-10 -4 -10 -9z"/>
<path d="M9064 3485 c-14 -11 -15 -14 -4 -15 28 0 60 12 54 21 -8 13 -28 11
-50 -6z"/>
<path d="M5195 3470 c4 -6 11 -8 16 -5 14 9 11 15 -7 15 -8 0 -12 -5 -9 -10z"/>
<path d="M8770 3430 c-8 -6 -36 -8 -61 -4 -29 3 -49 1 -54 -5 -3 -6 -21 -11
-40 -11 -18 0 -40 -6 -48 -14 -8 -8 -36 -16 -62 -18 -55 -3 -77 -28 -25 -28
18 0 29 4 25 10 -4 6 23 10 74 10 75 0 81 2 81 20 0 16 5 19 23 16 61 -14 90
-10 105 14 13 22 6 26 -18 10z"/>
<path d="M5757 3363 c-29 -8 -13 -28 19 -25 28 4 60 22 37 22 -6 0 -17 2 -25
4 -7 2 -21 2 -31 -1z"/>
<path d="M8246 3346 c3 -8 13 -12 25 -9 27 7 24 23 -6 23 -17 0 -23 -4 -19
-14z"/>
<path d="M8126 3329 c-71 -10 -84 -19 -29 -19 53 0 103 10 103 21 0 5 -3 8 -7
8 -5 -1 -35 -5 -67 -10z"/>
<path d="M6420 3266 c0 -18 35 -22 45 -6 3 6 2 10 -4 10 -5 0 -16 3 -25 6 -11
4 -16 1 -16 -10z"/>
<path d="M6660 3240 c0 -5 14 -10 31 -10 17 0 28 4 24 10 -3 6 -17 10 -31 10
-13 0 -24 -4 -24 -10z"/>
<path d="M7475 3240 c-15 -7 -10 -9 23 -9 23 -1 42 4 42 9 0 12 -37 12 -65 0z"/>
<path d="M7388 3233 c7 -3 16 -2 19 1 4 3 -2 6 -13 5 -11 0 -14 -3 -6 -6z"/>
<path d="M0 2171 c0 -8 90 -3 99 5 2 2 -19 4 -47 4 -29 0 -52 -4 -52 -9z"/>
<path d="M1940 2076 c0 -39 47 -49 80 -16 31 31 24 40 -30 40 -46 0 -50 -2
-50 -24z"/>
<path d="M2100 2089 c0 -5 5 -7 10 -4 6 3 10 8 10 11 0 2 -4 4 -10 4 -5 0 -10
-5 -10 -11z"/>
<path d="M865 2030 c-3 -5 3 -10 14 -10 12 0 21 5 21 10 0 6 -6 10 -14 10 -8
0 -18 -4 -21 -10z"/>
<path d="M1908 2023 c-10 -2 -18 -9 -18 -14 0 -13 12 -11 34 6 20 15 16 17
-16 8z"/>
<path d="M4836 2013 c-7 -17 9 -33 32 -33 19 0 14 28 -7 39 -15 8 -20 7 -25
-6z"/>
<path d="M2145 2010 c-3 -5 3 -18 15 -30 15 -15 33 -20 73 -20 71 0 96 17 39
26 -23 3 -47 13 -53 20 -13 16 -65 19 -74 4z"/>
<path d="M4913 1972 c-13 -2 -23 -10 -23 -18 0 -19 36 -18 44 2 8 20 7 21 -21
16z"/>
<path d="M3860 1941 c0 -15 11 -19 61 -25 88 -9 99 -8 99 9 0 8 5 15 11 15 5
0 7 5 4 10 -3 6 -44 10 -91 10 -75 0 -84 -2 -84 -19z"/>
<path d="M4292 1948 c-7 -7 -12 -18 -12 -25 0 -8 -11 -18 -25 -23 -15 -6 -25
-17 -25 -30 0 -20 1 -20 30 -5 32 17 80 61 80 74 0 5 -7 12 -16 15 -20 8 -18
8 -32 -6z"/>
<path d="M4180 1930 c0 -11 5 -20 10 -20 6 0 10 9 10 20 0 11 -4 20 -10 20 -5
0 -10 -9 -10 -20z"/>
<path d="M494 1930 c-6 -6 -34 -13 -63 -17 -37 -4 -51 -10 -47 -19 3 -7 -6
-17 -22 -23 -25 -9 -25 -9 -4 -10 12 -1 22 -7 22 -15 0 -14 42 -26 91 -26 16
0 29 5 29 11 0 8 19 10 64 5 74 -7 119 5 114 32 -2 13 -16 18 -53 22 -29 3
-63 15 -82 28 -36 25 -36 25 -49 12z m86 -60 c0 -5 -5 -10 -11 -10 -5 0 -7 5
-4 10 3 6 8 10 11 10 2 0 4 -4 4 -10z"/>
<path d="M3440 1925 c-11 -13 -10 -18 6 -30 22 -16 94 -20 94 -5 0 6 5 10 11
10 15 0 39 26 32 34 -4 3 -34 6 -68 6 -44 0 -66 -5 -75 -15z"/>
<path d="M4100 1929 c0 -5 5 -7 10 -4 6 3 10 8 10 11 0 2 -4 4 -10 4 -5 0 -10
-5 -10 -11z"/>
<path d="M900 1905 c0 -19 -55 -20 -112 -3 -34 10 -40 9 -53 -8 -8 -10 -15
-22 -15 -26 0 -12 78 -10 85 2 3 6 26 10 51 10 36 0 44 -3 44 -19 0 -26 54
-47 109 -42 26 2 46 -2 51 -9 5 -9 17 -8 49 3 l42 14 -25 16 c-14 10 -38 17
-53 17 -23 0 -31 6 -40 30 -11 29 -14 30 -72 30 -48 0 -61 -3 -61 -15z"/>
<path d="M100 1900 c0 -5 18 -10 40 -10 22 0 40 5 40 10 0 6 -18 10 -40 10
-22 0 -40 -4 -40 -10z"/>
<path d="M2820 1895 c0 -11 11 -15 40 -15 22 0 40 -4 40 -10 0 -5 4 -10 9 -10
5 0 4 11 -2 25 -10 20 -19 25 -49 25 -27 0 -38 -4 -38 -15z"/>
<path d="M97 1874 c-3 -3 -3 -12 0 -20 4 -11 -6 -14 -46 -14 -44 0 -51 -3 -51
-20 0 -17 7 -20 46 -20 35 0 51 -5 64 -20 17 -20 23 -20 120 -10 56 5 104 10
106 10 2 0 4 11 4 25 0 25 -1 25 -80 25 -64 0 -80 3 -80 15 0 10 10 15 28 16
24 0 25 1 7 9 -23 10 -109 13 -118 4z"/>
<path d="M1750 1860 c-12 -8 -12 -10 5 -10 11 0 27 5 35 10 12 8 12 10 -5 10
-11 0 -27 -5 -35 -10z"/>
<path d="M2063 1853 c8 -7 108 -5 116 2 2 3 -24 5 -59 5 -35 0 -60 -3 -57 -7z"/>
<path d="M3620 1571 c0 -12 81 -21 101 -11 9 5 46 7 81 3 44 -4 67 -2 72 6 5
8 -29 11 -123 11 -72 0 -131 -4 -131 -9z"/>
<path d="M4125 1549 c-4 -6 -14 -8 -22 -5 -8 3 -11 1 -8 -4 3 -5 -4 -12 -17
-14 -58 -13 -60 -15 -16 -13 25 0 53 -5 62 -12 31 -26 80 15 55 45 -14 17 -45
18 -54 3z"/>
<path d="M3200 1421 c0 -5 7 -12 16 -15 21 -8 65 4 58 15 -7 12 -74 12 -74 0z"/>
<path d="M1300 1366 c0 -14 42 -26 91 -26 34 0 39 18 7 24 -68 14 -98 14 -98
2z"/>
<path d="M12208 1303 c6 -2 18 -2 25 0 6 3 1 5 -13 5 -14 0 -19 -2 -12 -5z"/>
<path d="M12547 1252 c-22 -24 -21 -32 3 -32 15 0 20 7 20 25 0 30 -2 30 -23
7z"/>
<path d="M11759 1119 c-11 -8 -10 -12 5 -24 14 -11 23 -12 33 -4 7 6 13 15 13
19 0 12 -37 18 -51 9z"/>
<path d="M838 1103 c-21 -5 -24 -23 -4 -23 8 0 16 -5 18 -10 5 -16 76 -24 101
-12 37 17 51 20 72 11 16 -6 13 -8 -15 -8 -26 -1 -31 -4 -20 -11 20 -13 70
-13 70 0 0 6 18 10 40 10 27 0 40 4 40 14 0 9 -19 15 -57 20 -81 10 -225 15
-245 9z"/>
<path d="M11672 881 c-11 -7 -10 -10 3 -15 23 -9 25 -8 25 9 0 17 -9 19 -28 6z"/>
<path d="M12490 830 c0 -6 7 -10 15 -10 8 0 15 2 15 4 0 2 -7 6 -15 10 -8 3
-15 1 -15 -4z"/>
<path d="M11906 565 c-4 -11 2 -15 20 -15 23 0 24 2 10 15 -8 8 -17 15 -19 15
-3 0 -7 -7 -11 -15z"/>
<path d="M11300 542 c0 -10 45 -32 65 -32 24 0 17 27 -7 34 -33 8 -58 7 -58
-2z"/>
</g>
</svg>
